<svg xmlns="http://www.w3.org/2000/svg" xmlns:xlink="http://www.w3.org/1999/xlink" viewBox="0 0 1258.5 1120.58"><defs><style>.cls-1{fill:none;}.cls-2{fill:#f9bf49;}.cls-3{fill:#febf4c;}.cls-4{fill:#282633;}.cls-5{fill:#efb243;}.cls-6{fill:#e59f2e;}.cls-7{fill:#e2693a;}.cls-8{fill:#f57f37;}.cls-9{fill:#ab563b;}.cls-10{fill:#f9f6a3;}.cls-11{fill:#f27d38;}.cls-12{fill:#2a2732;}.cls-13{fill:#f7f2a4;}.cls-14{fill:#fbaf48;}.cls-15{fill:#ea6028;}.cls-16{fill:#1aa091;}.cls-17{fill:#03796e;}.cls-18{fill:#fdd280;}.cls-19{clip-path:url(#clip-path);}.cls-20{clip-path:url(#clip-path-2);}.cls-21{fill:#272331;}.cls-22{clip-path:url(#clip-path-3);}.cls-23{clip-path:url(#clip-path-4);}</style><clipPath id="clip-path"><path class="cls-1" d="M1069,741q-453.37-5.16-906,24c-32.44.86-48.13,37.62-41,65.08h0q470.91-34.59,943.29-32.36Z"/></clipPath><clipPath id="clip-path-2"><path class="cls-1" d="M1067,771.21q-452.61-2.64-904.28,29c-32.39,1.06-48,37.85-40.87,65.3h0q469.89-37.15,941.45-37.56Q1065.18,799.57,1067,771.21Z"/></clipPath><clipPath id="clip-path-3"><path class="cls-1" d="M1085.43,899.32q-420.59,14.2-840.6,40.34c-28.11.77-53.64,20.9-62.51,47-3.68,12.35-5.51,18.51-9.17,30.82q484.07-28.89,968.81-43l-.6-19.58C1141.78,924.29,1115,899.67,1085.43,899.32Z"/></clipPath><clipPath id="clip-path-4"><path class="cls-1" d="M1111.86,951.15q-444.28-1.6-888.36,13.24c-28.79,0-56.81,18.51-67.26,45.17-4.19,12.19-6.29,18.28-10.47,30.42q511.86-16,1024-11.07l-.2-19.71C1170.6,977.27,1142,952.55,1111.86,951.15Z"/></clipPath></defs><g id="Camada_2" data-name="Camada 2"><g id="logotipo"><g id="tile"><polygon class="cls-2" points="153.1 284.61 153.1 835.96 630.58 1111.64 1108.06 835.96 1108.06 284.61 630.58 8.94 153.1 284.61"/><polygon class="cls-3" points="225.58 326.46 225.58 794.12 630.58 1027.94 1035.58 794.12 1035.58 326.46 630.58 92.63 225.58 326.46"/><path class="cls-4" d="M630.58,1034.64,219.78,797.47V323.11L630.58,85.93l410.81,237.18V797.47l-2.9,1.67ZM231.39,790.76l399.19,230.48,399.2-230.48V329.81L630.58,99.34,231.39,329.81Z"/><polygon class="cls-5" points="215.51 381.41 230.16 340.59 243.6 341.37 244.68 323.05 291.1 325.77 295.67 415.24 312.77 416.24 311.18 443.4 339.27 445.05 347.19 477.39 412.19 494.68 402.33 540.5 445.09 543.01 449.76 588.82 508.4 592.26 503.71 672.31 238.61 656.78 215.51 381.41"/><polygon class="cls-6" points="235.39 437.65 255.6 437.65 255.6 459.43 288.02 459.43 288.02 501.58 288.02 523.62 321.09 523.62 326.27 548.91 356.75 546.32 365.83 619.59 241.33 626.07 235.39 437.65"/><polygon class="cls-5" points="1032.82 381.41 1018.17 340.59 1004.73 341.37 1003.66 323.05 957.24 325.77 952.67 415.24 935.57 416.24 937.16 443.4 909.06 445.05 901.15 477.39 836.14 494.68 846 540.5 803.25 543.01 798.58 588.82 739.93 592.26 744.63 672.31 1009.73 656.78 1032.82 381.41"/><polygon class="cls-6" points="1014.88 437.65 994.67 437.65 994.67 459.43 962.25 459.43 962.25 501.58 962.25 523.62 929.18 523.62 924 548.91 893.52 546.32 884.44 619.59 1016.68 626.07 1014.88 437.65"/><path class="cls-7" d="M180,611h29.74a15.8,15.8,0,0,1,15.8,15.8V779.35a25.6,25.6,0,0,0,12.79,22.15l379.42,219.06a25.58,25.58,0,0,0,25.58,0L1022.79,801.5c7.92-4.57,4.88-12,12.79-7.39,0,0,89.54,32,72.48,41.85L643.37,1104.25a25.58,25.58,0,0,1-25.58,0L166,843.4a25.56,25.56,0,0,1-12.79-22.31l1.09-184.44A25.77,25.77,0,0,1,180,611Z"/><path class="cls-8" d="M631.71,1026c-8.76,0-18.64-9.72-26.46-14.23L252.25,808c-20-6.25-29.6-12.11-25.33-43.87V356.48c0-34.5-1.34-30,25.33-43.87l353-203.8c26.3-18.26,34.52-10.87,50.66,0l353,203.8c29.71,9.82,26.67,13.85,25.33,43.87V764.09c1.34,27.11.79,32.48-25.33,43.87l-353,203.81C648.1,1016.28,640.46,1026,631.71,1026Zm-1.13-900.75a27.34,27.34,0,0,0-13.71,3.67l-353,203.8a27.51,27.51,0,0,0-13.71,23.76V764.09a27.5,27.5,0,0,0,13.71,23.76l353,203.81a27.53,27.53,0,0,0,27.43,0l353-203.81A27.51,27.51,0,0,0,1011,764.09V356.48a27.52,27.52,0,0,0-13.72-23.76l-353-203.8A27.38,27.38,0,0,0,630.58,125.25Z"/><path class="cls-4" d="M630.58,1034.64,219.78,797.47V323.11L630.58,85.93l410.81,237.18V797.47l-2.9,1.67ZM231.39,790.76l399.19,230.48,399.2-230.48V329.81L630.58,99.34,231.39,329.81Z"/><rect class="cls-9" x="333.37" y="826.36" width="16.8" height="158.82" rx="8.4" transform="translate(-613.53 748.87) rotate(-60)"/><rect class="cls-9" x="454.22" y="956.32" width="16.8" height="38.44" rx="8.4" transform="translate(-613.53 888.41) rotate(-60)"/><path class="cls-10" d="M155.36,837.27l20.37-17.74a16.85,16.85,0,0,0,5.79-12.79L179,311.93a17.59,17.59,0,0,1,9.08-15.48L618.57,58.61a24.88,24.88,0,0,0,12.84-22.55l-.83-27.12L153.1,284.61Z"/><path class="cls-10" d="M1113.87,284.61l-31.1,19a28.14,28.14,0,0,0-13.49,24V792.68a35.45,35.45,0,0,1-17.59,30.62L647.67,1059a25,25,0,0,0-12.4,22.53l1.12,30.16L1113.87,836Z"/><path class="cls-4" d="M630.58,1120.58l-3.87-2.24L145.36,840.43V280.14L630.58,0l485.23,280.14V840.43ZM160.84,831.49,630.58,1102.7l469.74-271.21V289.08L630.58,17.88,160.84,289.08Z"/></g><g id="centro"><g id="cupom"><path class="cls-10" d="M629,233.35c-17.06,0-27.53,8.06-32.39,15.6-4.35,6.75-4.45,15.38-4.8,22.23-13.28,6.37-22.3,12.79-34.14,19.35-6.22,3.44-11.63,6.9-15.71,10.63s-7.08,7.91-7.08,12.85a7.42,7.42,0,0,0,2.25,5.07,17.52,17.52,0,0,0,4.26,3.15,58.73,58.73,0,0,0,11.89,4.66,117.4,117.4,0,0,0,20.77,4c-6.5,10.87-15.16,20.85-22.75,30.42-8.76,11.05-16.42,21.65-16.42,33.43a38.61,38.61,0,0,0,.13,4.32,6.77,6.77,0,0,0,1.92,4.27,7.21,7.21,0,0,0,4.41,1.8,44.33,44.33,0,0,0,4.5.13h48.38c3.51,0,6.08.2,8.72-1.45s3.61-3.9,5.5-7.26l0-.07,0-.07s4.22-8.32,9.25-16.57a108.27,108.27,0,0,1,7.62-11.14,24.86,24.86,0,0,1,3.1-3.27.58.58,0,0,1,1,0,24.86,24.86,0,0,1,3.1,3.27,105.18,105.18,0,0,1,7.62,11.14c5,8.25,9.25,16.57,9.25,16.57l0,.07,0,.07c1.88,3.36,2.84,5.6,5.46,7.25s5.2,1.46,8.66,1.46h48.59a43.3,43.3,0,0,0,4.44-.13,7.17,7.17,0,0,0,4.39-1.82,6.72,6.72,0,0,0,1.88-4.26,38.35,38.35,0,0,0,.13-4.31c0-11.78-7.65-22.38-16.42-33.44-7.59-9.56-16.24-19.54-22.75-30.41a118.59,118.59,0,0,0,20.78-4,58.73,58.73,0,0,0,11.89-4.66,17.27,17.27,0,0,0,4.25-3.15,7.39,7.39,0,0,0,2.25-5.07c0-4.95-3-9.13-7.08-12.86s-9.49-7.18-15.7-10.62c-11.84-6.56-19.81-12.44-33.08-18.8-.35-6.86-1.43-15.31-5.78-22.06C656.61,242.12,645.82,233.35,629,233.35Z"/><path class="cls-10" d="M596.18,424.65H545.35a52.23,52.23,0,0,1-6.06-.24,25.63,25.63,0,0,1-23.49-23.07,49.94,49.94,0,0,1-.26-6.08v-.48c0-18,10.18-32.31,20.61-45.46,1.58-2,3.2-4,4.84-6l0,0a64,64,0,0,1-9.09-4.11,36.13,36.13,0,0,1-8.84-6.71,26.77,26.77,0,0,1-7.57-18.4c0-9.91,4.5-19,13.39-27.15,4.8-4.38,11-8.59,19.37-13.26,4.1-2.27,7.85-4.53,11.81-6.92,4.2-2.53,8.48-5.11,13.22-7.73a48.87,48.87,0,0,1,7-20.48C590.22,223.15,608.41,214,629,214c20.35,0,38.57,9.42,48.74,25.19a55,55,0,0,1,7.58,20.08c4.66,2.57,8.76,5.06,12.77,7.5,3.85,2.33,7.47,4.54,11.62,6.83,8.41,4.66,14.56,8.88,19.37,13.26C738,295,742.48,304.1,742.48,314a26.72,26.72,0,0,1-7.58,18.4,36.1,36.1,0,0,1-8.83,6.7,63.42,63.42,0,0,1-9.09,4.12l0,.06c1.64,2,3.26,4,4.83,6,10.43,13.15,20.62,27.49,20.62,45.46v.44a51.87,51.87,0,0,1-.26,6.08A25.62,25.62,0,0,1,718.8,424.4a52.71,52.71,0,0,1-6,.24h-50c-4.08,0-10.92.07-18.06-4.43-6.52-4.1-9.46-9.47-11.41-13l-1.12-2.06c-.21-.42-1.43-2.79-3.19-6-1.93,3.53-3.21,6-3.23,6.08l-1.07,2c-2,3.58-4.93,9-11.52,13.11A30.66,30.66,0,0,1,596.18,424.65Zm-38.76-38.71h34.75c1.64-3.14,5.1-9.62,9.08-16.14a121.93,121.93,0,0,1,9.15-13.31,42.41,42.41,0,0,1,5.87-6A21.63,21.63,0,0,1,620,348l9-4.79,9,4.81a21.61,21.61,0,0,1,3.7,2.42,42.27,42.27,0,0,1,5.9,6.06,121.83,121.83,0,0,1,9.16,13.31c4,6.57,7.49,13.1,9.08,16.13h34.74a118.08,118.08,0,0,0-9.05-12.57c-1.5-1.89-3-3.8-4.61-5.73-6.42-7.94-13.7-16.94-19.58-26.78l-15.74-26.3,30.51-2.9a95.11,95.11,0,0,0,12.48-2.1c-1.12-.68-2.34-1.37-3.64-2.09-4.83-2.68-9-5.19-13-7.62a211.8,211.8,0,0,0-19.12-10.67l-10.36-5-.6-11.48c-.31-6-1.22-10.25-2.72-12.57-.8-1.24-5.35-7.45-16.2-7.45s-15.11,5.16-16.13,6.74c-1.21,1.88-1.48,7.44-1.66,11.13l-.67,13.09-10.36,5a229.79,229.79,0,0,0-20.09,11.19c-4.09,2.47-8.32,5-13,7.64-1.31.72-2.52,1.42-3.65,2.09a95.67,95.67,0,0,0,12.48,2.1l30.52,2.9-15.74,26.3c-5.89,9.84-13.16,18.83-19.58,26.77-1.56,1.93-3.11,3.85-4.61,5.74A117.3,117.3,0,0,0,557.42,385.94Zm59.44-5.86h0Z"/><path class="cls-3" d="M629,233.35c-17.06,0-27.53,8.06-32.39,15.6-4.35,6.75-4.45,15.38-4.8,22.23-13.28,6.37-22.3,12.79-34.14,19.35-6.22,3.44-11.63,6.9-15.71,10.63s-7.08,7.91-7.08,12.85a7.42,7.42,0,0,0,2.25,5.07,17.52,17.52,0,0,0,4.26,3.15,58.73,58.73,0,0,0,11.89,4.66,117.4,117.4,0,0,0,20.77,4c-6.5,10.87-15.16,20.85-22.75,30.42-8.76,11.05-16.42,21.65-16.42,33.43a38.61,38.61,0,0,0,.13,4.32,6.77,6.77,0,0,0,1.92,4.27,7.21,7.21,0,0,0,4.41,1.8,44.33,44.33,0,0,0,4.5.13h48.38c3.51,0,6.08.2,8.72-1.45s3.61-3.9,5.5-7.26l0-.07,0-.07s4.22-8.32,9.25-16.57a108.27,108.27,0,0,1,7.62-11.14,24.86,24.86,0,0,1,3.1-3.27.58.58,0,0,1,1,0,24.86,24.86,0,0,1,3.1,3.27,105.18,105.18,0,0,1,7.62,11.14c5,8.25,9.25,16.57,9.25,16.57l0,.07,0,.07c1.88,3.36,2.84,5.6,5.46,7.25s5.2,1.46,8.66,1.46h48.59a43.3,43.3,0,0,0,4.44-.13,7.17,7.17,0,0,0,4.39-1.82,6.72,6.72,0,0,0,1.88-4.26,38.35,38.35,0,0,0,.13-4.31c0-11.78-7.65-22.38-16.42-33.44-7.59-9.56-16.24-19.54-22.75-30.41a118.59,118.59,0,0,0,20.78-4,58.73,58.73,0,0,0,11.89-4.66,17.27,17.27,0,0,0,4.25-3.15,7.39,7.39,0,0,0,2.25-5.07c0-4.95-3-9.13-7.08-12.86s-9.49-7.18-15.7-10.62c-11.84-6.56-19.81-12.44-33.08-18.8-.35-6.86-1.43-15.31-5.78-22.06C656.61,242.12,645.82,233.35,629,233.35Z"/><path class="cls-3" d="M596.18,414H545.33a42.74,42.74,0,0,1-4.91-.18,15.77,15.77,0,0,1-9.49-4.16,15.22,15.22,0,0,1-4.55-9.56,39.91,39.91,0,0,1-.2-4.84v-.49c0-14.56,8.66-26.68,18.31-38.85,1.56-2,3.16-3.94,4.78-5.94,3.34-4.13,6.74-8.33,9.93-12.62-2.85-.62-5.67-1.33-8.35-2.11a65.56,65.56,0,0,1-13.7-5.42,25.59,25.59,0,0,1-6.32-4.75A15.94,15.94,0,0,1,526.18,314c0-6.89,3.25-13.19,9.92-19.29,4.18-3.8,9.69-7.56,17.35-11.81,4.28-2.36,8.28-4.78,12.16-7.12,5.5-3.32,11.16-6.73,17.78-10.14.42-6.56,1.45-14.51,5.9-21.41,7.91-12.27,22.76-19.6,39.72-19.6,24.77,0,36.72,15.55,39.79,20.31,4.4,6.83,6.06,14.68,6.76,21.18,6.49,3.34,11.83,6.58,17,9.73,3.76,2.29,7.65,4.65,12,7.05,7.66,4.25,13.18,8,17.35,11.81,6.68,6.1,9.92,12.4,9.92,19.29a15.93,15.93,0,0,1-4.64,11.07,25.78,25.78,0,0,1-6.32,4.75,65.89,65.89,0,0,1-13.71,5.42c-2.68.78-5.5,1.49-8.34,2.1,3.19,4.3,6.59,8.5,9.93,12.63,1.62,2,3.22,4,4.77,5.94,9.65,12.17,18.31,24.29,18.31,38.85v.46a40,40,0,0,1-.19,4.85,15.25,15.25,0,0,1-4.46,9.5,15.7,15.7,0,0,1-9.52,4.24,42.1,42.1,0,0,1-4.87.17H662.72c-3.49,0-7.81,0-12.32-2.79-4.19-2.64-6.08-6.09-7.75-9.13l-.95-1.76s-4.11-8.07-8.89-15.91c-1.33-2.18-2.61-4.18-3.8-5.92-1.19,1.74-2.48,3.74-3.8,5.92-4.8,7.87-8.88,15.89-8.92,16l-.92,1.67c-1.68,3.07-3.58,6.55-7.81,9.18S599.49,414,596.18,414Zm-50.33-17.42h49.48a17.47,17.47,0,0,0,3-.11,10.66,10.66,0,0,0,1.77-2.78l.71-1.3c.75-1.46,4.75-9.22,9.53-17.05a115.75,115.75,0,0,1,8.3-12.12,33.62,33.62,0,0,1,4.35-4.51,10.58,10.58,0,0,1,2-1.3l4.11-2.19,4,2.25A10.1,10.1,0,0,1,635,358.7a32.66,32.66,0,0,1,4.37,4.52,117.47,117.47,0,0,1,8.31,12.12c5.05,8.28,9.23,16.48,9.56,17.13l.69,1.24a10.6,10.6,0,0,0,1.74,2.75,15.82,15.82,0,0,0,3,.12h51.79c0-.39,0-.83,0-1.33v-.47c0-9-6.59-18-14.54-28-1.52-1.92-3.09-3.86-4.67-5.81-6.5-8-13.23-16.36-18.73-25.55l-7.08-11.84,13.73-1.3a109.2,109.2,0,0,0,19.16-3.72,49.77,49.77,0,0,0,10.08-3.9,11,11,0,0,0,2-1.33c-.33-1.57-1.73-3.49-4.17-5.71-3.14-2.87-7.61-5.87-14-9.44-4.64-2.57-8.68-5-12.59-7.4a215.29,215.29,0,0,0-20-11.17l-4.66-2.24-.27-5.17c-.26-5.11-1-12.51-4.4-17.78-1.87-2.89-9.19-12.33-25.15-12.33s-22.83,8.12-25.08,11.61c-2.76,4.29-3.07,10.72-3.34,16.39l-.34,6.74L595.58,279a237.5,237.5,0,0,0-21,11.68c-4,2.41-8.15,4.91-12.7,7.44-6.45,3.57-10.91,6.57-14.06,9.44-2.43,2.22-3.82,4.13-4.16,5.7a10.25,10.25,0,0,0,2,1.34,49.89,49.89,0,0,0,10.07,3.9,108.82,108.82,0,0,0,19.16,3.72l13.74,1.3-7.09,11.84c-5.49,9.19-12.22,17.5-18.72,25.54-1.58,2-3.15,3.9-4.67,5.82-8,10-14.54,19.06-14.54,28v1.8h2.25Z"/><path class="cls-10" d="M684,328.42a127,127,0,0,0,20.78-3.66,62,62,0,0,0,11.89-4.24,17.48,17.48,0,0,0,4.25-2.86,6.46,6.46,0,0,0,2.25-4.62c0-4.49-3-8.3-7.08-11.69a84.74,84.74,0,0,0-15.7-9.66c-11.84-6-19.93-11.95-33.21-17.74-.35-6.24-4.14-18.14-8.49-24.28-4.87-6.87-17.92-13.48-29.63-13.48s-24.9,8.41-29.77,15.28a48.19,48.19,0,0,0-7.77,22c-13.28,5.8-22,12.3-33.79,18.27A84.84,84.84,0,0,0,542,301.35c-4.07,3.39-7.08,7.2-7.08,11.69a6.5,6.5,0,0,0,2.25,4.62,17.45,17.45,0,0,0,4.26,2.86,61.28,61.28,0,0,0,11.89,4.24,127.81,127.81,0,0,0,20.77,3.67"/><path class="cls-11" d="M629.28,251.47a25.45,25.45,0,0,0-22.06,12.33,41,41,0,0,0-5.74,19.5c-11.71,5.79-24.69,11.63-35.13,17.6a73.82,73.82,0,0,0-13.86,9.67c-3.59,3.38-6.24,7.19-6.24,11.69a6.84,6.84,0,0,0,2,4.61,15.47,15.47,0,0,0,3.76,2.87c2.87,1.65,6.44.08,10.43,1.28,5.93,1.77,2.06.57,7.83,1.14-5.74,9.88-12.24,20.47-18.94,29.18-7.73,10.05-16.29,27-16.29,37.75,0,1.53,8,10,13,4.44.14,1.2-1.2-1.18,0,0a6.26,6.26,0,0,0,3.89,1.64,37.29,37.29,0,0,0,4,.12h42.68c3.1,0,5.37.19,7.7-1.31s3.19-3.55,4.85-6.61l0-.07,0-.06s3.72-7.56,8.16-15.07A96.87,96.87,0,0,1,626.09,372a23.19,23.19,0,0,1,2.73-3,.5.5,0,0,1,.91,0,22.43,22.43,0,0,1,2.74,3,98.52,98.52,0,0,1,6.72,10.14c4.44,7.51,8.16,15.07,8.16,15.07l0,.06,0,.07c1.67,3.06,2.51,5.09,4.83,6.6s4.58,1.32,7.63,1.32h42.87a36.41,36.41,0,0,0,3.92-.12,6.14,6.14,0,0,0,3.87-1.66c1.2-1.19,7.72-2.38,7.85-3.58s7.91-3.14,7.91-4.67c0-10.72-11.85-23.87-19.59-33.93-6.69-8.7-15.88-20.64-21.62-30.53,5.77-.57,4.72.09,10.64-1.69,4-1.2,8,2.28,10.85.62a15,15,0,0,0,3.75-2.86,6.85,6.85,0,0,0,2-4.61c0-4.5-2.65-8.31-6.25-11.69a73.72,73.72,0,0,0-13.85-9.67c-10.45-6-23.42-11.81-35.13-17.6a41.06,41.06,0,0,0-5.75-19.5A25.42,25.42,0,0,0,629.28,251.47Z"/><path class="cls-12" d="M596.23,409.17h-50.9a39,39,0,0,1-4.39-.15,11.17,11.17,0,0,1-6.67-2.85,10.44,10.44,0,0,1-3.09-6.62,37.22,37.22,0,0,1-.16-4.28v-.49c0-13,8.17-24.37,17.26-35.84C549.83,357,551.42,355,553,353c5-6.14,10.07-12.45,14.49-19a124.81,124.81,0,0,1-15.31-3.38,61.66,61.66,0,0,1-12.7-5,21.15,21.15,0,0,1-5.17-3.86A11.21,11.21,0,0,1,531,314c0-5.45,2.73-10.59,8.34-15.71,3.89-3.55,9.11-7.09,16.44-11.16,4.35-2.41,8.4-4.85,12.31-7.21,6.1-3.68,12.4-7.48,20-11.22.32-6.76.86-15,5.29-21.85,3.37-5.23,13.58-17.38,35.65-17.38,22.33,0,33,13.85,35.72,18.09,4.47,6.94,5.78,15.29,6.25,21.66,7.44,3.69,13.35,7.28,19.09,10.77,3.8,2.31,7.73,4.7,12.14,7.14,7.33,4.06,12.55,7.61,16.44,11.16,5.61,5.12,8.35,10.26,8.35,15.71a11.21,11.21,0,0,1-3.32,7.74,21.55,21.55,0,0,1-5.17,3.86,61.37,61.37,0,0,1-12.7,5A124.58,124.58,0,0,1,690.49,334c4.43,6.58,9.53,12.89,14.5,19,1.61,2,3.2,4,4.74,5.9,9.1,11.47,17.27,22.84,17.27,35.84v.46a37.31,37.31,0,0,1-.16,4.29,10.63,10.63,0,0,1-3,6.59,11,11,0,0,1-6.67,2.9,38.43,38.43,0,0,1-4.35.15h-50.1c-3.12,0-6.4,0-9.72-2.05-3.12-2-4.49-4.46-6.07-7.36l-.71-1.28c0-.07-.11-.2-.14-.27s-4.22-8.29-9.11-16.31a101.19,101.19,0,0,0-7.32-10.72l-.61-.73c-.2.23-.41.47-.62.73a99.84,99.84,0,0,0-7.31,10.72c-4.89,8-9.06,16.22-9.11,16.3l-.13.26-.71,1.28c-1.6,2.92-3,5.43-6.13,7.4C602,409,599.18,409.17,596.23,409.17Zm-50.38-7.75H595.3c2.91,0,4.24,0,5.61-.86s2-1.95,3.43-4.55l.73-1.32c.18-.34,4.34-8.55,9.4-16.83a112.29,112.29,0,0,1,7.92-11.58,28,28,0,0,1,3.66-3.82,6.26,6.26,0,0,1,1.13-.73,4.1,4.1,0,0,1,3.66,0,6.24,6.24,0,0,1,1.12.73,28,28,0,0,1,3.66,3.82,112.44,112.44,0,0,1,7.93,11.58c5.05,8.28,9.22,16.48,9.39,16.83l.75,1.34c1.41,2.59,2,3.67,3.4,4.53s2.69.88,5.56.86H712.8a30.83,30.83,0,0,0,3.51-.11,3.42,3.42,0,0,0,2.11-.75,2.94,2.94,0,0,0,.73-1.92,29.16,29.16,0,0,0,.1-3.4v-.47c0-10.52-7-20.28-15.58-31-1.53-1.93-3.11-3.88-4.7-5.85-6.4-7.91-13-16.09-18.34-25a3.87,3.87,0,0,1,3-5.84,113.92,113.92,0,0,0,20.06-3.89,53.89,53.89,0,0,0,11.08-4.32,14.08,14.08,0,0,0,3.34-2.43,3.65,3.65,0,0,0,1.18-2.41c0-3.19-1.85-6.37-5.82-10-3.43-3.13-8.19-6.34-15-10.09-4.55-2.53-8.55-5-12.41-7.31a223,223,0,0,0-20.46-11.4,3.88,3.88,0,0,1-2.2-3.29c-.29-5.66-1.14-13.91-5.17-20.15-2.19-3.42-10.8-14.55-29.21-14.55s-26.46,9.67-29.14,13.83c-3.47,5.38-3.81,12.5-4.11,18.78l-.07,1.55a3.88,3.88,0,0,1-2.2,3.29,243.66,243.66,0,0,0-21.38,11.89c-4,2.4-8.08,4.88-12.56,7.36-6.78,3.76-11.54,7-15,10.09-4,3.63-5.82,6.81-5.82,10a3.62,3.62,0,0,0,1.19,2.41,13.67,13.67,0,0,0,3.34,2.43,53.43,53.43,0,0,0,11.08,4.32,112.3,112.3,0,0,0,20.06,3.89,3.88,3.88,0,0,1,3,5.84c-5.32,8.9-11.93,17.08-18.33,25-1.59,2-3.17,3.92-4.7,5.85-8.53,10.75-15.59,20.51-15.59,31v.5a30.69,30.69,0,0,0,.11,3.37,2.94,2.94,0,0,0,.74,1.92,3.41,3.41,0,0,0,2.14.75,34.66,34.66,0,0,0,3.57.11Zm46-130.24h0Z"/></g><rect class="cls-3" x="416.04" y="459.15" width="429.08" height="55.57" rx="5.04"/><path class="cls-4" d="M835.37,520.53H425.79A15.58,15.58,0,0,1,410.23,505V468.9a15.57,15.57,0,0,1,15.56-15.55H835.37a15.57,15.57,0,0,1,15.56,15.55V505A15.58,15.58,0,0,1,835.37,520.53ZM425.79,465a4,4,0,0,0-4,3.94V505a4,4,0,0,0,4,3.95H835.37a4,4,0,0,0,4-3.95V468.9a4,4,0,0,0-4-3.94Z"/><rect class="cls-3" x="376.6" y="509.93" width="507.97" height="55.57" rx="5.04"/><path class="cls-4" d="M874.82,571.31H386.35a15.58,15.58,0,0,1-15.56-15.56V519.68a15.58,15.58,0,0,1,15.56-15.55H874.82a15.57,15.57,0,0,1,15.55,15.55v36.07A15.58,15.58,0,0,1,874.82,571.31ZM386.35,515.74a4,4,0,0,0-4,3.94v36.07a4,4,0,0,0,4,4H874.82a4,4,0,0,0,3.94-4V519.68a4,4,0,0,0-3.94-3.94Z"/><rect class="cls-13" x="330.77" y="560.99" width="599.62" height="55.57" rx="5.04"/><path class="cls-4" d="M920.64,622.37H340.52A15.57,15.57,0,0,1,325,606.81V570.74a15.56,15.56,0,0,1,15.55-15.55H920.64a15.57,15.57,0,0,1,15.56,15.55v36.07A15.58,15.58,0,0,1,920.64,622.37ZM340.52,566.8a4,4,0,0,0-3.94,3.94v36.07a4,4,0,0,0,3.94,4H920.64a4,4,0,0,0,4-4V570.74a4,4,0,0,0-4-3.94Z"/><path class="cls-14" d="M930.39,588.78H383.85A21.89,21.89,0,0,0,362,610.67H930.39Z"/><rect class="cls-13" x="290.89" y="610.67" width="679.39" height="55.57" rx="5.04"/><path class="cls-4" d="M960.53,672.05H300.64a15.58,15.58,0,0,1-15.56-15.56V620.42a15.57,15.57,0,0,1,15.56-15.55H960.53a15.57,15.57,0,0,1,15.55,15.55v36.07A15.58,15.58,0,0,1,960.53,672.05ZM300.64,616.48a4,4,0,0,0-3.95,3.94v36.07a4,4,0,0,0,3.95,4H960.53a4,4,0,0,0,3.94-4V620.42a4,4,0,0,0-3.94-3.94Z"/><path class="cls-15" d="M290.89,662.5l1.67-2c11.7-13.86,21.32-22.06,41.16-22.06H928.8c16.5,0,20.27,5.67,31.93,15.77l9.55,8.27"/><path class="cls-4" d="M960.53,672.05H300.64a15.58,15.58,0,0,1-15.56-15.56V620.42a15.57,15.57,0,0,1,15.56-15.55H960.53a15.57,15.57,0,0,1,15.55,15.55v36.07A15.58,15.58,0,0,1,960.53,672.05ZM300.64,616.48a4,4,0,0,0-3.95,3.94v36.07a4,4,0,0,0,3.95,4H960.53a4,4,0,0,0,3.94-4V620.42a4,4,0,0,0-3.94-3.94Z"/><path class="cls-4" d="M936.2,616.48H325V570.74a15.56,15.56,0,0,1,15.55-15.55H920.64a15.57,15.57,0,0,1,15.56,15.55ZM336.58,604.87h588V570.74a4,4,0,0,0-4-3.94H340.52a4,4,0,0,0-3.94,3.94Z"/><path class="cls-13" d="M879.09,534.71H439.14a161.39,161.39,0,0,0-61.5,12.17l-1,.43,6.59-35.6,486.2-4.79,15.18,15.18Z"/><path class="cls-13" d="M841.42,483.85H466.35A120.16,120.16,0,0,0,413.92,496l-.89.43,5.61-35.6,414.51-4.79,12.94,15.18Z"/><path class="cls-4" d="M890.37,566.8H370.79V519.68a15.58,15.58,0,0,1,15.56-15.55H874.82a15.57,15.57,0,0,1,15.55,15.55Zm-508-11.61H878.76V519.68a4,4,0,0,0-3.94-3.94H386.35a4,4,0,0,0-4,3.94Z"/><g id="detalhes_tijolos" data-name="detalhes tijolos"><path class="cls-3" d="M553.39,484.3S528.71,472.06,514.91,474s-36.67,6.86-52.84,6.55-18.41,11.59-18.41,11.59l17.23,8.68,47.94-2.72Z"/><path class="cls-3" d="M710.66,483.85s69.49-11.42,100.13-5.71l-.18,11.71Z"/><path class="cls-3" d="M432.74,552.26s22.11-27.17,58.68-27.17l4.77,9.62.26,15.89-13.53-.42Z"/><path class="cls-14" d="M359.49,607.61s2-18.68-7.16-18.83-15.72,16.12-15.72,16.12L354,605Z"/><polygon class="cls-3" points="642.63 525.57 689.65 536.26 704.47 530.92 755.65 535.46 731.07 545.99 649.92 543.63 635.25 541.17 642.63 525.57"/><polygon class="cls-14" points="466.91 588.78 483.44 585.83 510.04 588.78 536.14 579.64 548.75 582.37 559.41 588.78 576.5 581.25 582.67 581.81 582.99 590.51 466.91 588.78"/><path class="cls-3" d="M759.59,533.33s45.12-13.29,70.6,2.17l-10.14,8H749.41Z"/><path class="cls-14" d="M583,590.51s15.31-15.3,47.59-10.87,95.48,5.43,95.48,5.43,52.75-3.39,59.57.76,72.65,4.38,75.47-1.16v15.05L613.76,596.8Z"/><path class="cls-13" d="M830.19,537.44s12.77,4.49,25,3.45,15.3-9.52,19.72-7.09S878.51,523,878.51,523l-47,9Z"/><polygon class="cls-13" points="552.97 483.85 559.21 487.33 673.95 489.85 710.66 483.85 710.55 476.26 552.97 483.85"/><polygon class="cls-13" points="510.04 532.38 588.75 541.17 612.19 534.71 623.17 538.68 642.95 532.38 574.13 523.6 510.04 532.38"/></g><g id="brilhos"><path class="cls-10" d="M409.43,388.82a42.08,42.08,0,0,1-24.68-30.6,42.08,42.08,0,0,1-24.68,30.6c-2.49,1.08-8.66,2.74-8.66,2.74s6.17,1.66,8.66,2.74a42.09,42.09,0,0,1,24.68,30.61,42.09,42.09,0,0,1,24.68-30.61c2.48-1.08,8.66-2.74,8.66-2.74S411.91,389.9,409.43,388.82Z"/><path class="cls-10" d="M465.3,313.15a26.53,26.53,0,0,1-15.57-19.3,26.51,26.51,0,0,1-15.57,19.3c-1.56.68-5.46,1.73-5.46,1.73s3.9,1.05,5.46,1.73a26.51,26.51,0,0,1,15.57,19.3,26.53,26.53,0,0,1,15.57-19.3c1.57-.68,5.46-1.73,5.46-1.73S466.87,313.83,465.3,313.15Z"/><path class="cls-10" d="M328.3,486.49a4.74,4.74,0,1,1-4.74-4.74A4.74,4.74,0,0,1,328.3,486.49Z"/><circle class="cls-10" cx="287.17" cy="514.03" r="4.73"/><path class="cls-10" d="M820,354.21A45.59,45.59,0,0,0,846,320.82a45.62,45.62,0,0,0,25.94,33.39c2.61,1.17,9.1,3,9.1,3a94.94,94.94,0,0,0-9.1,3A45.62,45.62,0,0,0,846,393.58,45.59,45.59,0,0,0,820,360.19a94.94,94.94,0,0,0-9.1-3S817.43,355.38,820,354.21Z"/><path class="cls-10" d="M974.83,449.7A4.74,4.74,0,1,1,970.1,445,4.73,4.73,0,0,1,974.83,449.7Z"/><path class="cls-10" d="M963.22,477.57a4.73,4.73,0,1,1-4.73-4.74A4.73,4.73,0,0,1,963.22,477.57Z"/><path class="cls-10" d="M714.11,221.71A22.66,22.66,0,0,0,727,205.12a22.63,22.63,0,0,0,12.88,16.59c1.3.58,4.52,1.48,4.52,1.48a46.81,46.81,0,0,0-4.52,1.49A22.61,22.61,0,0,0,727,241.27a22.65,22.65,0,0,0-12.89-16.59,46.81,46.81,0,0,0-4.52-1.49S712.81,222.29,714.11,221.71Z"/><path class="cls-10" d="M530,235.05a13.22,13.22,0,0,0,7.53-9.68,13.22,13.22,0,0,0,7.53,9.68,25.09,25.09,0,0,0,2.64.87s-1.89.53-2.64.87a13.23,13.23,0,0,0-7.53,9.69,13.23,13.23,0,0,0-7.53-9.69c-.75-.34-2.64-.87-2.64-.87A25.09,25.09,0,0,0,530,235.05Z"/></g><path class="cls-4" d="M850.93,515.74H410.23V468.9a15.57,15.57,0,0,1,15.56-15.55H835.37a15.57,15.57,0,0,1,15.56,15.55ZM421.84,504.13H839.32V468.9a4,4,0,0,0-4-3.94H425.79a4,4,0,0,0-4,3.94Z"/><path class="cls-4" d="M553.72,511.33c-.19-.58-4.62-14.42-4.62-27.48,0-11.4,4.44-25.12,4.63-25.69l7.35,2.4c0,.13-4.24,13.14-4.24,23.29,0,11.82,4.2,25,4.25,25.1Z"/><rect class="cls-4" x="685" y="480.88" width="51.11" height="7.74" transform="translate(148.28 1135.69) rotate(-83.48)"/><rect class="cls-4" x="492.58" y="511.44" width="7.74" height="51.11" transform="translate(-57.78 59.86) rotate(-6.52)"/><polygon class="cls-4" points="641.86 562.39 634.12 562.39 634.12 542.16 638.77 525.02 639.08 510.06 646.82 510.22 646.49 526.13 641.86 543.19 641.86 562.39"/><path class="cls-4" d="M755.08,562.82a161.68,161.68,0,0,1,.66-29.93c1.67-14.58,5.33-22.24,5.48-22.56l7,3.37c0,.06-3.25,6.94-4.75,20.07a155.93,155.93,0,0,0-.65,28.35Z"/><path class="cls-4" d="M359.36,613.64c-.74-.68-18-16.93-.94-55.23l7.07,3.15c-14.63,32.8-1.47,45.83-.9,46.37Z"/><rect class="cls-4" x="459.95" y="559.91" width="7.74" height="50.93" transform="translate(-43.14 36.94) rotate(-4.36)"/><path class="cls-4" d="M574.39,614.69a4.66,4.66,0,0,1-2-.46l3.47-6.92a3.09,3.09,0,0,0-3.3.24c3.51-3.44,12.94-32.13,5.87-45.79l6.87-3.56c8.87,17.11-1.51,49-7.23,54.78A5.09,5.09,0,0,1,574.39,614.69Z"/><rect class="cls-4" x="860.53" y="559.91" width="7.74" height="50.93" transform="translate(-41.98 67.38) rotate(-4.36)"/><rect class="cls-4" x="361.96" y="614.17" width="7.74" height="50.78"/><rect class="cls-4" x="516.07" y="614.17" width="7.74" height="50.78"/><rect class="cls-4" x="670.88" y="614.17" width="7.74" height="50.78"/><rect class="cls-4" x="792.8" y="614.17" width="7.74" height="50.78"/><rect class="cls-4" x="895.36" y="614.17" width="7.74" height="50.78"/><path class="cls-4" d="M449,510.14H441.3c0-6.25-.49-15.88-1-25.19s-1-19.14-1-25.59h7.74c0,6.25.49,15.88,1,25.19S449,503.69,449,510.14Z"/><rect class="cls-4" x="785.23" y="480.88" width="51.11" height="7.74" transform="translate(297.84 1277.99) rotate(-87.99)"/><path class="cls-4" d="M405.74,562.75,398,562c.65-6.22,1.16-15.84,1.66-25.15s1-19.14,1.69-25.56l7.7.81c-.65,6.22-1.17,15.85-1.66,25.16S406.41,556.34,405.74,562.75Z"/><rect class="cls-4" x="804.58" y="533.13" width="51.11" height="7.74" transform="translate(264.29 1347.75) rotate(-87.99)"/><rect class="cls-9" x="718.02" y="692.07" width="185.13" height="19.68" rx="9.84"/><rect class="cls-9" x="681.87" y="692.07" width="25.29" height="19.68" rx="9.84"/><rect class="cls-9" x="645.72" y="692.07" width="25.29" height="19.68" rx="9.84"/></g><g id="texto"><path class="cls-16" d="M8,582.53c26.72,141.34,61.47,280.92,90.22,421.84,8.17,39,44.94,77,87.4,72.51,274.86-29.51,551.89-53.89,828.33-60.7q63.23,32.37,126.3,65.05c5.77,3,14.09-1.28,15.76-8,31.62-128.49,62-257.29,93.12-385.9,10.17-41.57-31.27-70-68-71.48C840.42,594.91,498.43,592.42,160,640.54c-45.13-22-90-44.34-134.09-68.33C16.52,567,6.18,572.94,8,582.53Z"/><path class="cls-17" d="M20,582.17c26.31,136.36,65.24,269.52,97.92,404.39,1,4.39,1.55,6.59,2.58,11,.45,2,.8,3.27,1.23,4.8,3.59,12.83,12.87,24.25,24.32,31.27a66.32,66.32,0,0,0,42.2,8.95c4-.47,6.05-.7,10.09-1.15,20.31-2.18,40.7-4.16,61.06-5.71,252.69-19.19,506-26,759.41-34.14l1.53,0,1.41.74q59.64,31.16,119.48,61.9l2.29,1.16s.19,0,.3.06l.42.08c.52.06,1-.1.77-.1a1.93,1.93,0,0,0-.73.33,4,4,0,0,0-1,1,2.94,2.94,0,0,0-.34.61s0,.14,0,0,0-.21.07-.36c.21-1.12.32-1.69.54-2.82,15.87-83.46,31.77-167.12,47.31-250.43,7.45-39.93,15.21-80.74,23.25-119.92,5.1-24.79-18.17-44.32-39.9-46.52-253.1-25.65-532.85-23-795.25-15.53-73,2.08-147.24,9.83-220.47,18.36l-1.35.15-1.08-.55C114.14,628.18,71.91,605.35,31,583.88c-3.63-1.91-11-5.17-11-5.17s.08-.07,0,0a3.42,3.42,0,0,0-.18,1.38,16.11,16.11,0,0,0,.23,2.08Zm-4.15.1c-2.27-13.06,9.34-6,16.94-1.94,7.36,4,11,6,18.34,9.9,35.59,18.86,71.91,36.34,108.33,53.52l-2.44-.41c73-11.28,146.14-24.72,219.23-32.36,258-27,521.57-19.76,780.71.31,7.82.61,23.73,1.77,31.64,3.62,34.84,8.15,73.41,39.12,64.12,79.59s-19.06,81.42-28.49,122c-19.46,83.77-41.74,168.14-62,251.15-3.29,13.43-20.08,19.3-30.31,13.16l-.59-.34-1.16-.69c-14.87-8.74-22.4-13.18-37.61-22.11q-38.91-22.53-78-44.76l2.92.7c-169.19.12-338.93,12.51-506.8,32.84-95,11.5-190.77,21-285.28,26.21-10.86.6-30.72,2.91-42.21,2.36-41.37-2-79.18-35.38-85.95-76.08-23-137.93-54-277.8-81.39-416.64Z"/><path class="cls-4" d="M1145.18,1085.76a15.92,15.92,0,0,1-7.35-1.75l-20.11-10.38c-34.33-17.73-69.81-36.05-104.79-54-301.51,7.29-600.41,35.93-827.25,60.09-21.67,2.27-43.66-5.37-62-21.54C107.07,1043.51,95,1023,90.55,1002,78.48,943,65.17,883.37,52.3,825.67,34.36,745.28,15.82,662.15.32,579.72v0A16.8,16.8,0,0,1,7,562.58c6.1-4.38,14.36-4.61,21.54-.61,45.59,24.91,92.18,48,132,67.49,159.78-22.67,326.34-35.09,509.14-38,154.86-2.45,322.52,2.09,512.56,13.87,25.46,1.08,50.83,13.67,64.66,32.07a55.67,55.67,0,0,1,9.84,48.11C1244.39,736.44,1232,788.25,1220,838.36c-18.32,76.43-37.26,155.46-56.35,233.1a19.12,19.12,0,0,1-10.76,12.59A18.59,18.59,0,0,1,1145.18,1085.76Zm-129-80.18,1.58.81c35.52,18.19,71.57,36.8,106.43,54.8l20.1,10.38a3.55,3.55,0,0,0,2.81-.26,5.28,5.28,0,0,0,3-3.2c19.07-77.59,38-156.6,56.33-233,12-50.12,24.43-101.94,36.78-152.89,3.25-13.27.74-25.5-7.43-36.38-11.25-15-33-25.62-54.13-26.5h-.13C991.73,607.56,824.4,603,669.9,605.48c-183,2.89-349.69,15.37-509.53,38.14l-2.12.31-1.94-.95C116,623.28,68.41,599.7,21.79,574.23c-2.92-1.63-5.38-1.16-6.62-.28a2.93,2.93,0,0,0-1.09,3.18h0c15.45,82.2,34,165.21,51.88,245.5,12.89,57.75,26.21,117.47,38.3,176.47,9.25,44,48.79,70,79.94,66.74,227.55-24.23,527.55-53,830.17-60.21Z"/><g id="templo_do" data-name="templo do"><path class="cls-17" d="M114.73,696.26q21.55-1.17,43-2t43.38-1.91c1.6,16.5,2.4,24.75,4,41.23-8.9.32-13.35.48-22.24.82q2.88,45.28,5.73,90.58c-17.4,1-26.1,1.46-43.5,2.49q-2.6-45.33-5.22-90.64c-9.39.54-14.08.82-23.47,1.39Z"/><path class="cls-17" d="M141.48,831.51l-.22-3.87q-2.49-43.38-5-86.77L116.66,742l-3.94.24-2-49.67,3.82-.21c14.26-.77,28.74-1.46,43.05-2s28.76-1.23,43.37-1.91l3.67-.17,4.75,49-4.11.15-18.26.66q2.76,43.32,5.48,86.62l.25,3.9-3.9.21c-17.39,1-26.09,1.47-43.48,2.49Zm2.06-98.82.23,3.86q2.5,43.4,5,86.78c13.67-.81,22.07-1.29,35.74-2.05q-2.73-43.35-5.48-86.69l-.26-4,4-.15,18.14-.67-3.25-33.48q-20.06.93-39.72,1.74c-13,.54-26.16,1.16-39.15,1.85l1.37,34.15,19.55-1.16Z"/><path class="cls-17" d="M206,732c-1.49-15.72-2.24-23.59-3.73-39.34q51.2-3.86,102.41-7.34c.46,15.47.68,23.2,1.13,38.66-16.92,1-25.38,1.46-42.29,2.49l.85,18.68c9.75-.49,14.63-.73,24.38-1.2.41,9.4.62,14.09,1,23.49-9.58.87-14.37,1.31-23.94,2.21.25,5.65.38,8.48.63,14.14,15.28-.86,22.92-1.28,38.2-2.09,1.21,14.59,1.81,21.88,3,36.45q-39.66,2.14-79.29,4.54-2.81-46.26-5.63-92.51Z"/><path class="cls-17" d="M224.72,826.75l-.24-3.87q-2.67-44.22-5.38-88.46l-12.72,1.39-3.91.43L198,689.06l3.93-.3c34-2.56,68.45-5,102.44-7.34l4-.27,1.35,46.44-3.76.22c-15.6.88-24,1.37-38.47,2.25l.5,11,20.5-1,3.89-.18,1.36,31.06-3.68.33-20.26,1.87.29,6.54c12.8-.71,20.38-1.12,34.31-1.86l3.75-.2,3.64,44.16-4,.21c-26.21,1.42-52.88,2.94-79.26,4.54Zm1.61-100.89.25,4q2.71,44.33,5.39,88.65c23.81-1.43,47.81-2.81,71.48-4.09l-2.37-28.73c-12.88.68-20.46,1.1-34.43,1.88l-3.91.22-1-21.73,3.68-.35,20.27-1.87L285,748l-20.49,1-3.88.2-1.2-26.37,3.81-.24c15.62-.94,24-1.44,38.54-2.27l-.9-30.87c-31.35,2.13-63.08,4.41-94.43,6.77l3,31.5,12.86-1.4Z"/><path class="cls-17" d="M309,726.43c-1.39-15.48-2.08-23.23-3.48-38.74q33-2.34,66.07-4.54c6.62,16.82,9.93,25.2,16.52,41.94,6.52-16.71,9.79-25,16.35-41.65,17.28-.14,25.92-.19,43.2-.27q4.06,63.51,8.07,127c-15.26.7-22.89,1.06-38.15,1.81-1.12-20.59-1.68-30.9-2.8-51.52-4.4,19.74-6.6,29.63-11,49.43-8.11,1-12.17,1.5-20.28,2.52-5.54-18.4-8.31-27.63-13.89-46.11-.17,19.34-.26,29-.44,48.35-16.86.38-25.28.58-42.14,1q-1.17-45.52-2.36-91Z"/><path class="cls-17" d="M323.23,819.65l-.1-3.87Q322,772.37,320.88,729l-11.48,1.32-3.95.46-4.19-46.62,3.94-.28c21.8-1.54,44-3.07,66.08-4.55l2.82-.18L388,714.49c4.39-11.2,7.53-19.19,12.77-32.47l1-2.43,2.61,0c17.28-.14,25.92-.19,43.21-.27l3.64,0,.24,3.64q4.06,63.51,8.08,127l.25,3.93-3.94.18c-15.26.7-22.89,1.07-38.14,1.82l-3.85.19-.21-3.85c-.5-9.27-.89-16.45-1.27-23.43-1.44,6.53-2.94,13.3-4.86,22l-.59,2.67-2.72.34c-8.11,1-12.16,1.49-20.26,2.51l-3.25.4-7.49-24.86L373,818.45l-3.75.09c-16.85.37-25.28.58-42.13,1Zm5.17-99.34.11,4.22q1.14,43.59,2.26,87.18c13.18-.33,21.32-.53,34.54-.83l.63-70,20.3,67.34,14.32-1.77c4-18.07,6.19-27.94,10.39-46.77l6.11-27.41,1.53,28c1.06,19.3,1.61,29.56,2.6,47.68,11.55-.57,18.85-.92,30.38-1.45q-3.76-59.71-7.59-119.44c-14.1.06-22.55.11-36.93.23-5.93,15-9.19,23.34-15.39,39.21l-3.59,9.19L369,687.2c-19.79,1.32-39.7,2.69-59.3,4.08l2.77,30.85,11.75-1.35Z"/><path class="cls-17" d="M457.11,721.43c-1.32-15.07-2-22.6-3.31-37.69q46.72-.53,93.45-.74c8.8,9.82,13.18,14.71,22,24.47-.19,21-.29,31.43-.48,52.38-9.24,5.81-13.85,8.72-23.07,14.59-10.46.2-15.7.31-26.17.53.62,12.74.92,19.11,1.54,31.85-17.51.49-26.27.75-43.77,1.3q-1.75-44.05-3.52-88.11C467.08,720.57,463.76,720.85,457.11,721.43Zm76.82,18.12c.07-9.78.1-14.67.16-24.44l-17.54,1.34c.46,9.79.69,14.69,1.14,24.47Z"/><path class="cls-17" d="M473.53,812.11l-.15-3.84q-1.67-42-3.35-84.07l-12.58,1.08-3.85.34-4-45.7,4.18,0c33.42-.38,64-.62,93.49-.74H549l1.16,1.3c8.79,9.81,13.18,14.71,21.94,24.47l1,1.11-.51,56-1.79,1.12c-9.23,5.81-13.84,8.72-23,14.58l-.91.59-1.09,0-22.19.44,1.53,31.83-4,.11c-17.5.49-26.25.75-43.75,1.3Zm3.91-96.3.16,4Q479.3,762,481,804.13c13.78-.43,22.25-.68,36-1.07l-1.53-31.88,4-.08c10.1-.22,15.33-.32,25.09-.51,8-5.11,12.58-8,20.38-12.89l.45-48.76c-7.74-8.61-12.08-13.46-19.79-22.06-27.7.11-56.39.34-87.51.69l2.61,29.67,12.78-1.09ZM514,745.12l-1.49-32.24,3.74-.29,17.53-1.34,4.19-.32-.2,32.17-3.52.3L518,744.78Zm6.58-25.1.78,16.7,8.72-.74.1-16.7Z"/><path class="cls-17" d="M572,721.27c-1.22-14.8-1.83-22.2-3.06-37q30.29-.69,60.59-1.19,1.31,40.41,2.6,80.83c13.29-.54,19.93-.8,33.22-1.29.71,14.85,1.06,22.27,1.76,37.11q-37,1.63-74,3.53-2-41.81-4.1-83.6Z"/><path class="cls-17" d="M589.36,807.31l-.19-3.88-3.9-79.54-12.95,1.23-3.9.38-3.73-45,4.11-.09c20.1-.45,40.5-.85,60.61-1.19l3.81-.06.13,3.81q1.24,38.46,2.47,76.92c10.83-.43,17.41-.69,29.33-1.13l3.83-.14,2.13,44.82-3.87.17c-24.66,1.09-49.56,2.27-74,3.52Zm3.24-91.89.2,4q2,39.85,3.91,79.72c21.94-1.11,44.2-2.17,66.3-3.15l-1.39-29.41c-10.87.41-17.44.66-29.38,1.15l-3.9.15-.13-3.9q-1.23-38.5-2.48-77c-17.49.29-35.16.64-52.65,1l2.41,29,13.08-1.24Z"/><path class="cls-17" d="M684.88,676.94q30.6-.18,61.19-.18l20,12.91q2.16,44.36,4.3,88.72c-4.36,6.67-6.54,10-10.9,16.72q-34.51,1.53-69,3.29l-17.4-11.74q-3.35-47.37-6.73-94.73C673.76,685.91,677.46,682.91,684.88,676.94Zm25,89.72c9.38-.88,14.07-1.31,23.45-2.16q-1.21-29.49-2.44-59c-11.08.56-16.62.85-27.71,1.44Q706.5,736.81,709.84,766.66Z"/><path class="cls-17" d="M689.39,802.33l-1.07-.72-17.41-11.74-1.56-1.06-.13-1.88q-3.35-47.35-6.73-94.72l-.14-2,1.56-1.27c7.41-6,11.12-9,18.54-15l1.06-.85h1.35c20-.12,40.57-.18,61.21-.18h1.14l1,.62,20,12.9,1.68,1.08.1,2q2.16,44.35,4.29,88.72l.06,1.26-.68,1c-4.36,6.67-6.54,10-10.89,16.71l-1.09,1.67-2,.09c-22.9,1-46.12,2.12-69,3.28ZM676.8,784.51l14.77,10c21.83-1.11,43.93-2.17,65.77-3.14,3.45-5.3,5.57-8.56,9.13-14q-2.06-42.74-4.14-85.48c-6.63-4.26-10.56-6.8-17.4-11.21-19.78,0-39.51.06-58.68.17-6.21,5-9.83,7.94-15.89,12.87Q673.6,739.09,676.8,784.51Zm29.62-13.64-.42-3.78q-3.35-29.85-6.7-59.7l-.46-4.08,4.1-.22c11.08-.59,16.63-.88,27.72-1.44l3.9-.2.16,3.9q1.23,29.5,2.44,59l.15,3.68-3.67.33c-9.38.85-14.06,1.29-23.44,2.16Zm1-60.27,5.82,51.85,16-1.47q-1-25.69-2.12-51.4C719.8,710,714.76,710.21,707.45,710.6Z"/><path class="cls-17" d="M839.05,715c-.93-14.24-1.39-21.37-2.32-35.63q44.31.09,88.62.44l17.75,14.47q1.24,40.95,2.47,81.91c-6.45,7.22-9.67,10.84-16.1,18.11q-35.91.6-71.81,1.44-1-40.87-1.95-81.74ZM890.16,764c8.16-1,12.24-1.57,20.4-2.59-.69-18.67-1-28-1.74-46.72L889,712C889.49,732.85,889.72,743.25,890.16,764Z"/><path class="cls-17" d="M853.88,799.65l-.09-3.87q-.91-38.87-1.86-77.73l-12.65.76-3.84.24-2.85-43.61h4.14c29.3.06,59.13.21,88.65.44h1.36l1.06.86,17.74,14.47,1.37,1.11.05,1.77q1.26,40.95,2.48,81.91l0,1.55-1,1.15c-6.45,7.21-9.67,10.83-16.1,18.1l-1.13,1.28-1.7,0c-23.82.4-48,.88-71.78,1.44Zm5.6-89.8.09,4q.95,38.92,1.87,77.87c22-.5,44.26-1,66.26-1.32,5.38-6.07,8.54-9.63,13.95-15.7q-1.17-39.3-2.37-78.6L924,683.62c-27.67-.22-55.6-.36-83.1-.42l1.8,27.65,12.82-.76Zm26.9,58.56-1.31-60.81,27.5,3.73.12,3.25c.7,18.7,1,28,1.74,46.72l.13,3.54-3.52.44c-8.16,1-12.24,1.54-20.39,2.59ZM893,716.49l.93,43.15,12.62-1.6c-.57-15.34-.91-24.47-1.48-39.92Z"/><path class="cls-17" d="M969.12,678.79q30.61.56,61.23,1.29c7.94,5.11,11.91,7.67,19.84,12.76q1.45,42.28,2.89,84.57c-4.47,6.25-6.71,9.38-11.17,15.66q-34.58.66-69.13,1.55c-6.89-4.62-10.33-6.94-17.23-11.58q-2.58-45.19-5.21-90.4C957.84,687.08,961.6,684.31,969.12,678.79Zm23.54,86c9.4-.61,14.1-.92,23.5-1.51q-.74-28.11-1.5-56.22c-11.1.27-16.65.41-27.74.72Q989.8,736.32,992.66,764.83Z"/><path class="cls-17" d="M971.64,798.52l-1-.69c-6.88-4.62-10.33-6.93-17.23-11.58l-1.59-1.07-.11-1.92q-2.58-45.19-5.22-90.4l-.12-2.08,1.68-1.25c7.52-5.57,11.28-8.34,18.8-13.86l1-.77,1.31,0c20.33.37,40.94.8,61.25,1.29l1.09,0,.91.59,19.84,12.77,1.71,1.09.07,2q1.45,42.28,2.89,84.57l0,1.31-.76,1.07c-4.47,6.25-6.7,9.38-11.17,15.65l-1.13,1.59-2,0c-22.73.44-46,1-69.1,1.55ZM959.31,780.9l14.6,9.82c22.07-.56,44.25-1.06,66-1.48,3.51-4.93,5.68-8,9.29-13q-1.38-40.61-2.78-81.22c-6.55-4.2-10.45-6.71-17.22-11.08-19.51-.46-39.29-.88-58.81-1.24-6.28,4.61-10,7.31-16,11.82Q956.84,737.7,959.31,780.9Zm29.87-12-.37-3.72q-2.87-28.5-5.74-57l-.42-4.15,4.16-.11c11.1-.3,16.65-.45,27.76-.72l3.86-.1.1,3.86q.76,28.11,1.5,56.23l.1,3.73-3.72.23c-9.4.6-14.1.9-23.49,1.52Zm2-57.37q2.49,24.58,4.95,49.16l16.06-1q-.65-24.32-1.3-48.63C1003.53,711.24,998.49,711.38,991.19,711.57Z"/><g id="templo_do-2" data-name="templo do"><path class="cls-18" d="M103,685.69q21.56-1.14,43-2t43.41-1.88c1.62,16.53,2.42,24.8,4,41.31l-22.25.8q2.91,45.38,5.8,90.75c-17.41,1-26.11,1.45-43.52,2.46q-2.62-45.4-5.29-90.81c-9.4.54-14.1.82-23.49,1.38C104.06,710.89,103.72,702.5,103,685.69Z"/><path class="cls-18" d="M194.33,721.54l-3.75-39.41q51.22-3.84,102.47-7.28l1.15,38.74c-16.93.95-25.39,1.44-42.31,2.45.35,7.49.52,11.23.86,18.72,9.76-.48,14.64-.72,24.4-1.18.42,9.41.63,14.12,1,23.53l-23.95,2.19.65,14.17c15.28-.84,22.93-1.26,38.22-2.05,1.21,14.61,1.82,21.92,3,36.51q-39.67,2.12-79.34,4.48-2.84-46.33-5.7-92.68Z"/><path class="cls-18" d="M297.39,716.08c-1.4-15.51-2.1-23.27-3.51-38.81q33-2.31,66.1-4.5l16.56,42c6.52-16.73,9.79-25.07,16.34-41.71,17.28-.13,25.93-.17,43.21-.24q4.13,63.63,8.18,127.27c-15.27.69-22.91,1-38.18,1.79-1.13-20.64-1.7-31-2.84-51.63-4.39,19.78-6.58,29.68-10.94,49.52-8.12,1-12.18,1.49-20.29,2.5-5.56-18.44-8.34-27.68-13.93-46.2-.17,19.37-.25,29.06-.41,48.43-16.87.37-25.3.57-42.17,1q-1.2-45.62-2.43-91.23Z"/><path class="cls-18" d="M445.64,711.19c-1.34-15.09-2-22.65-3.35-37.76q46.75-.49,93.51-.67c8.81,9.84,13.2,14.75,22,24.53-.18,21-.27,31.5-.45,52.48-9.23,5.82-13.84,8.74-23.06,14.61-10.48.19-15.72.29-26.19.5.63,12.78.94,19.16,1.56,31.92-17.52.48-26.28.73-43.8,1.27q-1.77-44.15-3.58-88.29Zm76.88,18.21c.05-9.79.08-14.69.13-24.48-7,.52-10.53.79-17.54,1.33l1.15,24.52Z"/><path class="cls-18" d="M560.54,711.12c-1.23-14.82-1.85-22.24-3.09-37.09q30.31-.64,60.62-1.14,1.35,40.5,2.67,81c13.29-.52,19.94-.78,33.23-1.26.72,14.88,1.08,22.32,1.79,37.19q-37,1.61-74.07,3.47-2.07-41.88-4.16-83.77Z"/><path class="cls-18" d="M673.5,666.79q30.62-.15,61.23-.13c8,5.19,12,7.78,20,12.94q2.19,44.46,4.36,88.91c-4.36,6.69-6.54,10-10.89,16.75q-34.53,1.5-69.06,3.24l-17.42-11.78Q658.4,729.26,655,681.8C662.38,675.77,666.09,672.77,673.5,666.79Zm25,89.92c9.38-.87,14.08-1.3,23.46-2.14q-1.23-29.57-2.48-59.11c-11.09.55-16.63.84-27.72,1.42Q695.18,726.79,698.54,756.71Z"/><path class="cls-18" d="M827.78,705c-.93-14.28-1.4-21.42-2.35-35.71q44.34.12,88.68.5c7.11,5.82,10.66,8.72,17.76,14.51q1.27,41.06,2.53,82.09c-6.44,7.24-9.66,10.86-16.1,18.14q-35.91.59-71.84,1.39-1-41-2-81.91C837.78,704.4,834.45,704.59,827.78,705ZM879,754.21c8.16-1,12.24-1.55,20.41-2.57-.71-18.72-1.06-28.08-1.77-46.82l-19.8-2.7C878.27,723,878.5,733.39,879,754.21Z"/><path class="cls-18" d="M957.9,668.85q30.63.58,61.26,1.33c7.95,5.14,11.92,7.7,19.86,12.81q1.49,42.38,3,84.75c-4.47,6.27-6.7,9.4-11.17,15.69q-34.57.65-69.16,1.5L944.4,773.32q-2.62-45.3-5.28-90.6C946.62,677.15,950.38,674.37,957.9,668.85Z"/></g><g id="templo_do-3" data-name="templo do"><g class="cls-19"><g id="templo_do-4" data-name="templo do"><path class="cls-3" d="M103,685.69q21.56-1.14,43-2t43.41-1.88c1.62,16.53,2.42,24.8,4,41.31l-22.25.8q2.91,45.38,5.8,90.75c-17.41,1-26.11,1.45-43.52,2.46q-2.62-45.4-5.29-90.81c-9.4.54-14.1.82-23.49,1.38C104.06,710.89,103.72,702.5,103,685.69Z"/><path class="cls-3" d="M194.33,721.54l-3.75-39.41q51.22-3.84,102.47-7.28l1.15,38.74c-16.93.95-25.39,1.44-42.31,2.45.35,7.49.52,11.23.86,18.72,9.76-.48,14.64-.72,24.4-1.18.42,9.41.63,14.12,1,23.53l-23.95,2.19.65,14.17c15.28-.84,22.93-1.26,38.22-2.05,1.21,14.61,1.82,21.92,3,36.51q-39.67,2.12-79.34,4.48-2.84-46.33-5.7-92.68Z"/><path class="cls-3" d="M297.39,716.08c-1.4-15.51-2.1-23.27-3.51-38.81q33-2.31,66.1-4.5l16.56,42c6.52-16.73,9.79-25.07,16.34-41.71,17.28-.13,25.93-.17,43.21-.24q4.13,63.63,8.18,127.27c-15.27.69-22.91,1-38.18,1.79-1.13-20.64-1.7-31-2.84-51.63-4.39,19.78-6.58,29.68-10.94,49.52-8.12,1-12.18,1.49-20.29,2.5-5.56-18.44-8.34-27.68-13.93-46.2-.17,19.37-.25,29.06-.41,48.43-16.87.37-25.3.57-42.17,1q-1.2-45.62-2.43-91.23Z"/><path class="cls-3" d="M445.64,711.19c-1.34-15.09-2-22.65-3.35-37.76q46.75-.49,93.51-.67c8.81,9.84,13.2,14.75,22,24.53-.18,21-.27,31.5-.45,52.48-9.23,5.82-13.84,8.74-23.06,14.61-10.48.19-15.72.29-26.19.5.63,12.78.94,19.16,1.56,31.92-17.52.48-26.28.73-43.8,1.27q-1.77-44.15-3.58-88.29Zm76.88,18.21c.05-9.79.08-14.69.13-24.48-7,.52-10.53.79-17.54,1.33l1.15,24.52Z"/><path class="cls-3" d="M560.54,711.12c-1.23-14.82-1.85-22.24-3.09-37.09q30.31-.64,60.62-1.14,1.35,40.5,2.67,81c13.29-.52,19.94-.78,33.23-1.26.72,14.88,1.08,22.32,1.79,37.19q-37,1.61-74.07,3.47-2.07-41.88-4.16-83.77Z"/><path class="cls-3" d="M673.5,666.79q30.62-.15,61.23-.13c8,5.19,12,7.78,20,12.94q2.19,44.46,4.36,88.91c-4.36,6.69-6.54,10-10.89,16.75q-34.53,1.5-69.06,3.24l-17.42-11.78Q658.4,729.26,655,681.8C662.38,675.77,666.09,672.77,673.5,666.79Zm25,89.92c9.38-.87,14.08-1.3,23.46-2.14q-1.23-29.57-2.48-59.11c-11.09.55-16.63.84-27.72,1.42Q695.18,726.79,698.54,756.71Z"/><path class="cls-3" d="M827.78,705c-.93-14.28-1.4-21.42-2.35-35.71q44.34.12,88.68.5c7.11,5.82,10.66,8.72,17.76,14.51q1.27,41.06,2.53,82.09c-6.44,7.24-9.66,10.86-16.1,18.14q-35.91.59-71.84,1.39-1-41-2-81.91C837.78,704.4,834.45,704.59,827.78,705ZM879,754.21c8.16-1,12.24-1.55,20.41-2.57-.71-18.72-1.06-28.08-1.77-46.82l-19.8-2.7C878.27,723,878.5,733.39,879,754.21Z"/><path class="cls-3" d="M957.9,668.85q30.63.58,61.26,1.33c7.95,5.14,11.92,7.7,19.86,12.81q1.49,42.38,3,84.75c-4.47,6.27-6.7,9.4-11.17,15.69q-34.57.65-69.16,1.5L944.4,773.32q-2.62-45.3-5.28-90.6C946.62,677.15,950.38,674.37,957.9,668.85Z"/></g></g></g><g id="templo_do-5" data-name="templo do"><g class="cls-20"><g id="templo_do-6" data-name="templo do"><path class="cls-8" d="M103,685.69q21.56-1.14,43-2t43.41-1.88c1.62,16.53,2.42,24.8,4,41.31l-22.25.8q2.91,45.38,5.8,90.75c-17.41,1-26.11,1.45-43.52,2.46q-2.62-45.4-5.29-90.81c-9.4.54-14.1.82-23.49,1.38C104.06,710.89,103.72,702.5,103,685.69Z"/><path class="cls-8" d="M194.33,721.54l-3.75-39.41q51.22-3.84,102.47-7.28l1.15,38.74c-16.93.95-25.39,1.44-42.31,2.45.35,7.49.52,11.23.86,18.72,9.76-.48,14.64-.72,24.4-1.18.42,9.41.63,14.12,1,23.53l-23.95,2.19.65,14.17c15.28-.84,22.93-1.26,38.22-2.05,1.21,14.61,1.82,21.92,3,36.51q-39.67,2.12-79.34,4.48-2.84-46.33-5.7-92.68Z"/><path class="cls-8" d="M297.39,716.08c-1.4-15.51-2.1-23.27-3.51-38.81q33-2.31,66.1-4.5l16.56,42c6.52-16.73,9.79-25.07,16.34-41.71,17.28-.13,25.93-.17,43.21-.24q4.13,63.63,8.18,127.27c-15.27.69-22.91,1-38.18,1.79-1.13-20.64-1.7-31-2.84-51.63-4.39,19.78-6.58,29.68-10.94,49.52-8.12,1-12.18,1.49-20.29,2.5-5.56-18.44-8.34-27.68-13.93-46.2-.17,19.37-.25,29.06-.41,48.43-16.87.37-25.3.57-42.17,1q-1.2-45.62-2.43-91.23Z"/><path class="cls-8" d="M445.64,711.19c-1.34-15.09-2-22.65-3.35-37.76q46.75-.49,93.51-.67c8.81,9.84,13.2,14.75,22,24.53-.18,21-.27,31.5-.45,52.48-9.23,5.82-13.84,8.74-23.06,14.61-10.48.19-15.72.29-26.19.5.63,12.78.94,19.16,1.56,31.92-17.52.48-26.28.73-43.8,1.27q-1.77-44.15-3.58-88.29Zm76.88,18.21c.05-9.79.08-14.69.13-24.48-7,.52-10.53.79-17.54,1.33l1.15,24.52Z"/><path class="cls-8" d="M560.54,711.12c-1.23-14.82-1.85-22.24-3.09-37.09q30.31-.64,60.62-1.14,1.35,40.5,2.67,81c13.29-.52,19.94-.78,33.23-1.26.72,14.88,1.08,22.32,1.79,37.19q-37,1.61-74.07,3.47-2.07-41.88-4.16-83.77Z"/><path class="cls-8" d="M673.5,666.79q30.62-.15,61.23-.13c8,5.19,12,7.78,20,12.94q2.19,44.46,4.36,88.91c-4.36,6.69-6.54,10-10.89,16.75q-34.53,1.5-69.06,3.24l-17.42-11.78Q658.4,729.26,655,681.8C662.38,675.77,666.09,672.77,673.5,666.79Zm25,89.92c9.38-.87,14.08-1.3,23.46-2.14q-1.23-29.57-2.48-59.11c-11.09.55-16.63.84-27.72,1.42Q695.18,726.79,698.54,756.71Z"/><path class="cls-8" d="M827.78,705c-.93-14.28-1.4-21.42-2.35-35.71q44.34.12,88.68.5c7.11,5.82,10.66,8.72,17.76,14.51q1.27,41.06,2.53,82.09c-6.44,7.24-9.66,10.86-16.1,18.14q-35.91.59-71.84,1.39-1-41-2-81.91C837.78,704.4,834.45,704.59,827.78,705ZM879,754.21c8.16-1,12.24-1.55,20.41-2.57-.71-18.72-1.06-28.08-1.77-46.82l-19.8-2.7C878.27,723,878.5,733.39,879,754.21Z"/><path class="cls-8" d="M957.9,668.85q30.63.58,61.26,1.33c7.95,5.14,11.92,7.7,19.86,12.81q1.49,42.38,3,84.75c-4.47,6.27-6.7,9.4-11.17,15.69q-34.57.65-69.16,1.5L944.4,773.32q-2.62-45.3-5.28-90.6C946.62,677.15,950.38,674.37,957.9,668.85Z"/></g></g></g><path class="cls-16" d="M982.45,754.29c9.4-.61,14.1-.91,23.51-1.49q-.76-28.17-1.54-56.34c-11.1.26-16.66.4-27.76.69Q979.57,725.73,982.45,754.29Z"/><path class="cls-17" d="M1002.74,712.41l-12.68,1.15c.69,14.59,1,21.88,1.72,36.46l-8.77,1.4c-1.53-21-2.3-31.49-3.85-52.52,10.63-.07,16-.1,26.59-.15C1004.55,704.21,1003.94,706.94,1002.74,712.41Z"/><path class="cls-21" d="M133.53,821a3.87,3.87,0,0,1-3.86-3.64q-2.52-43.49-5.07-87c-7,.4-11.61.67-19.62,1.15a3.86,3.86,0,0,1-4.1-3.71l-1.72-42a3.87,3.87,0,0,1,3.66-4c14.22-.76,28.72-1.43,43.09-2s28.77-1.21,43.38-1.88a3.88,3.88,0,0,1,4,3.49l4,41.32a3.81,3.81,0,0,1-.94,2.92,3.85,3.85,0,0,1-2.77,1.32l-18.27.65q2.79,43.39,5.54,86.79a3.88,3.88,0,0,1-3.65,4.11c-17.4,1-26.1,1.44-43.51,2.46Zm-5.29-98.55a3.87,3.87,0,0,1,3.86,3.64q2.55,43.49,5.07,86.95c13.68-.79,22.09-1.27,35.77-2q-2.76-43.43-5.55-86.85a3.83,3.83,0,0,1,1-2.84,3.87,3.87,0,0,1,2.73-1.28l18.14-.65L186,685.83q-20.07.92-39.76,1.72c-13.05.53-26.21,1.13-39.17,1.81l1.4,34.23L128,722.44Z"/><path class="cls-21" d="M216.8,816.28a3.87,3.87,0,0,1-3.86-3.63q-2.72-44.32-5.45-88.64l-12.74,1.38a3.88,3.88,0,0,1-4.27-3.48l-3.76-39.41a3.87,3.87,0,0,1,3.57-4.23c34-2.55,68.49-5,102.5-7.28a3.88,3.88,0,0,1,4.13,3.75l1.15,38.73a3.87,3.87,0,0,1-3.65,4c-15.6.88-24,1.36-38.49,2.23l.51,11,20.52-1a3.89,3.89,0,0,1,2.79,1,3.84,3.84,0,0,1,1.26,2.69l1.05,23.53a3.88,3.88,0,0,1-3.52,4c-8.27.75-13,1.17-20.27,1.85l.3,6.57c12.81-.71,20.4-1.11,34.34-1.84a3.86,3.86,0,0,1,4,3.55l3,36.51a3.87,3.87,0,0,1-3.65,4.19c-26.41,1.4-53.1,2.91-79.31,4.48Zm-5.7-100.42a3.88,3.88,0,0,1,2.5.91,3.84,3.84,0,0,1,1.36,2.72q2.74,44.41,5.47,88.83c23.66-1.41,47.69-2.76,71.52-4l-2.39-28.8c-12.89.67-20.48,1.08-34.46,1.86a3.88,3.88,0,0,1-4.08-3.69l-.65-14.17a3.88,3.88,0,0,1,3.51-4l20.28-1.86-.71-16c-7.35.35-12.13.58-20.51,1a4,4,0,0,1-2.79-1,3.82,3.82,0,0,1-1.26-2.68L248,716.22a3.87,3.87,0,0,1,3.63-4c15.63-.94,24-1.43,38.56-2.25L289.3,679c-31.37,2.12-63.12,4.38-94.5,6.71l3,31.58,12.88-1.39Z"/><path class="cls-21" d="M315.51,809.39a3.88,3.88,0,0,1-3.87-3.77q-1.14-43.5-2.31-87l-11.5,1.32a3.9,3.9,0,0,1-4.3-3.5L290,677.62a3.87,3.87,0,0,1,3.59-4.21c21.64-1.52,43.89-3,66.12-4.51a3.88,3.88,0,0,1,3.86,2.45l12.93,32.84C380.9,693,384,685,389.27,671.67a3.88,3.88,0,0,1,3.58-2.45c17.29-.13,25.94-.17,43.23-.24h0A3.86,3.86,0,0,1,440,672.6q4.11,63.63,8.17,127.27a3.82,3.82,0,0,1-1,2.83,3.86,3.86,0,0,1-2.71,1.29c-15.26.69-22.9,1-38.16,1.78a3.92,3.92,0,0,1-4-3.65c-.51-9.3-.91-16.5-1.29-23.5-1.45,6.54-2.94,13.32-4.86,22a3.87,3.87,0,0,1-3.31,3l-20.27,2.49a3.86,3.86,0,0,1-4.19-2.72l-6.57-21.79-.19,22.94a3.88,3.88,0,0,1-3.79,3.84c-16.86.36-25.29.56-42.15,1Zm-2.43-99a3.87,3.87,0,0,1,3.87,3.77q1.17,43.68,2.33,87.36c13.19-.32,21.33-.51,34.56-.8l.38-44.68a3.87,3.87,0,0,1,7.57-1.09l13,43.08,14.34-1.77c4-18.09,6.17-28,10.36-46.85a3.87,3.87,0,0,1,7.64.63c1.07,19.34,1.63,29.62,2.63,47.79,11.56-.56,18.86-.91,30.41-1.43q-3.82-59.85-7.69-119.7c-14.11.06-22.56.11-37,.21-5.93,15.06-9.18,23.38-15.37,39.27a3.87,3.87,0,0,1-3.6,2.46h0a3.86,3.86,0,0,1-3.6-2.45l-15.52-39.4c-19.93,1.32-39.86,2.67-59.33,4l2.8,30.93c4-.46,6.93-.8,11.76-1.34A3.11,3.11,0,0,1,313.08,710.42Z"/><path class="cls-21" d="M465.84,801.94a3.87,3.87,0,0,1-3.86-3.72q-1.71-42.12-3.42-84.25L446,715.05a3.87,3.87,0,0,1-4.19-3.52l-3.34-37.76a3.86,3.86,0,0,1,3.81-4.21c33.33-.36,63.93-.58,93.54-.67h0a3.9,3.9,0,0,1,2.89,1.29c8.8,9.84,13.19,14.74,22,24.53a3.89,3.89,0,0,1,1,2.62l-.45,52.48a3.85,3.85,0,0,1-1.81,3.24c-9.22,5.81-13.83,8.73-23,14.59a4,4,0,0,1-2,.61c-9.06.16-14.2.26-22.2.42l1.36,27.94a3.86,3.86,0,0,1-3.76,4.06c-17.51.48-26.27.73-43.78,1.26Zm-3.58-96a3.86,3.86,0,0,1,3.87,3.71q1.72,42.23,3.43,84.46c13.79-.42,22.26-.66,36-1l-1.36-28a3.86,3.86,0,0,1,1-2.83A3.93,3.93,0,0,1,508,761l25.11-.48c8-5.11,12.58-8,20.37-12.9l.42-48.87c-7.75-8.64-12.1-13.49-19.82-22.13-27.81.1-56.52.3-87.56.63L449.15,707l12.79-1.09Zm44,28.73A3.86,3.86,0,0,1,502.4,731l-1.16-24.52a3.87,3.87,0,0,1,3.57-4c7-.54,10.53-.81,17.55-1.33a3.78,3.78,0,0,1,2.93,1,3.84,3.84,0,0,1,1.23,2.85l-.13,24.48a3.88,3.88,0,0,1-3.55,3.84l-16.25,1.37Zm16.26-5.24h0Zm-13.37-19.58.79,16.75,8.73-.73.09-16.75Z"/><path class="cls-21" d="M581.7,797.15a3.87,3.87,0,0,1-3.87-3.68q-2-39.86-4-79.72l-13,1.23a3.89,3.89,0,0,1-4.23-3.54l-3.09-37.08a3.87,3.87,0,0,1,3.77-4.2c20.12-.43,40.53-.82,60.65-1.14a3.94,3.94,0,0,1,3.93,3.75q1.27,38.54,2.54,77.09c10.83-.42,17.41-.67,29.35-1.11a3.86,3.86,0,0,1,4,3.68l1.79,37.19a3.86,3.86,0,0,1-3.7,4.06c-24.56,1.06-49.48,2.23-74,3.46Zm-4.17-91.51a3.86,3.86,0,0,1,2.53,1,3.9,3.9,0,0,1,1.34,2.73q2,39.95,4,79.9c22-1.1,44.31-2.14,66.34-3.11l-1.42-29.49c-10.87.4-17.45.66-29.4,1.13a3.86,3.86,0,0,1-4-3.74q-1.26-38.6-2.54-77.19c-17.5.29-35.18.62-52.68,1l2.42,29.09,13.1-1.24Z"/><path class="cls-21" d="M679.19,792.37a3.87,3.87,0,0,1-2.16-.66c-7-4.7-10.45-7.06-17.43-11.78a3.91,3.91,0,0,1-1.69-2.93q-3.37-47.46-6.79-94.92a3.83,3.83,0,0,1,1.41-3.28c7.41-6,11.12-9,18.54-15a3.87,3.87,0,0,1,2.41-.85c20.43-.1,41-.15,61.25-.13a3.82,3.82,0,0,1,2.1.62c8,5.19,12,7.77,20,12.94a3.86,3.86,0,0,1,1.77,3.06q2.21,44.46,4.37,88.91a3.86,3.86,0,0,1-.63,2.31c-4.35,6.68-6.53,10-10.88,16.73a3.86,3.86,0,0,1-3.08,1.76c-23.09,1-46.32,2.1-69,3.24Zm-13.69-17.8,14.79,10c21.66-1.08,43.79-2.12,65.8-3.09,3.45-5.32,5.56-8.57,9.12-14q-2.09-42.84-4.2-85.67l-17.43-11.25c-19.37,0-39.11,0-58.7.12-6.21,5-9.84,8-15.9,12.88Q662.26,729.06,665.5,774.57Zm33-14a3.86,3.86,0,0,1-3.84-3.44q-3.36-29.91-6.75-59.82a3.86,3.86,0,0,1,3.64-4.3c11.1-.59,16.65-.87,27.74-1.43a3.83,3.83,0,0,1,2.8,1,3.91,3.91,0,0,1,1.26,2.7q1.25,29.55,2.48,59.11a3.86,3.86,0,0,1-3.52,4c-9.38.85-14.07,1.27-23.45,2.14A2.17,2.17,0,0,1,698.54,760.58Zm-2.44-60.05q2.94,26,5.87,52L718,751l-2.16-51.52Z"/><path class="cls-21" d="M846.46,789.79a3.89,3.89,0,0,1-3.87-3.78q-.95-39-1.91-77.91l-12.66.76a3.91,3.91,0,0,1-4.1-3.61l-2.35-35.71a3.87,3.87,0,0,1,3.86-4.13h0c29.42.09,59.26.26,88.69.51a3.88,3.88,0,0,1,2.42.87l17.76,14.52a3.82,3.82,0,0,1,1.42,2.87q1.28,41.05,2.53,82.09a3.88,3.88,0,0,1-1,2.7c-6.44,7.22-9.66,10.85-16.08,18.12a3.88,3.88,0,0,1-2.84,1.31c-24.13.39-48.29.85-71.82,1.38Zm-2-89.66a3.89,3.89,0,0,1,3.87,3.78L850.24,782c21.77-.48,44-.91,66.3-1.27,5.37-6.08,8.53-9.64,14-15.72q-1.2-39.39-2.43-78.78l-15.35-12.54c-27.59-.23-55.53-.39-83.14-.48l1.82,27.73,12.83-.76Zm34.51,58a3.85,3.85,0,0,1-3.87-3.78l-1.16-52.1a3.87,3.87,0,0,1,4.39-3.92l19.8,2.7a3.89,3.89,0,0,1,3.35,3.69c.71,18.74,1.06,28.11,1.76,46.82a3.86,3.86,0,0,1-3.38,4c-8.17,1-12.25,1.53-20.4,2.57A2.74,2.74,0,0,1,879,758.08Zm2.81-51.51,1,43.26,12.63-1.59c-.57-15.39-.92-24.54-1.51-40Z"/><path class="cls-21" d="M961.64,788.81a3.87,3.87,0,0,1-2.16-.66l-17.24-11.62a3.87,3.87,0,0,1-1.71-3q-2.61-45.3-5.28-90.59a3.89,3.89,0,0,1,1.56-3.34c7.51-5.57,11.27-8.35,18.8-13.88A4.14,4.14,0,0,1,958,665c20.34.39,41,.83,61.28,1.34a3.85,3.85,0,0,1,2,.61l19.85,12.81a3.87,3.87,0,0,1,1.78,3.11q1.48,42.39,2.95,84.76a3.83,3.83,0,0,1-.72,2.38c-4.47,6.26-6.7,9.4-11.16,15.68a3.86,3.86,0,0,1-3.08,1.63c-23.23.43-46.49.94-69.14,1.5Zm-13.49-17.63L962.78,781c21.64-.53,43.83-1,66-1.43,3.5-4.94,5.67-8,9.28-13q-1.41-40.69-2.84-81.41c-6.56-4.22-10.46-6.74-17.24-11.12-19.52-.48-39.31-.91-58.85-1.28-6.26,4.6-9.94,7.31-16,11.83Q945.65,727.89,948.15,771.18Z"/><path class="cls-21" d="M980.8,757.79a3.88,3.88,0,0,1-3.85-3.48q-2.88-28.57-5.79-57.15a3.88,3.88,0,0,1,.94-2.95,3.93,3.93,0,0,1,2.81-1.31c11.11-.29,16.66-.43,27.77-.7a3.78,3.78,0,0,1,4,3.76q.78,28.18,1.55,56.36a3.87,3.87,0,0,1-3.63,4c-9.4.59-14.1.88-23.5,1.49Zm-1.52-57.26q2.51,24.65,5,49.29c5.94-.39,10.13-.65,16.07-1Q999.69,724.41,999,700Z"/></g><g id="tabuleiro"><path class="cls-17" d="M186.28,866.49q22.47-1.18,44.86-2.15t45.25-2.08c1.56,15.18,2.33,22.78,3.88,38l-23.2.65q2.69,41.55,5.34,83.11c-18.16.33-27.23.5-45.38.87q-2.39-41-4.8-82c-9.8.44-14.7.67-24.49,1.13C187.16,889,186.86,881.5,186.28,866.49Z"/><path class="cls-17" d="M211.56,990.79l-.33-5.58Q209,947.08,206.77,909l-18.76.87-5.84.27L180.25,861l5.72-.3c14.66-.77,29.77-1.5,44.92-2.15q22.38-1,45.22-2.08l5.5-.27.56,5.48c1.55,15.18,2.33,22.78,3.88,38l.63,6.22-6.25.17-17.18.48q2.49,38.55,4.95,77.11l.39,6.06-6.08.11c-18.15.33-27.22.51-45.36.88Zm6.13-94,.33,5.72q2.25,38.21,4.48,76.41c12.7-.26,21.13-.42,33.73-.66q-2.46-38.52-5-77l-.39-6,6-.17,16.95-.48c-1-9.67-1.68-16.49-2.68-26.29q-20.08,1-39.79,1.82c-13.15.57-26.27,1.19-39.09,1.85l1,26,18.65-.86Z"/><path class="cls-17" d="M288,898.86c-1.58-14.52-2.38-21.77-4-36.27q38.61-3,77.21-5.93,18.29,61.17,36.16,122.45l-41.92,3.37c-1.47-6.66-2.21-10-3.69-16.64-11.85.69-17.77,1-29.61,1.75-1.1,6-1.64,9-2.73,15-16.27.65-24.4,1-40.66,1.67q8.53-43.2,17.09-86.4Zm55.13,30.78c-3-11.91-4.49-17.86-7.49-29.74-2.35,12.1-3.53,18.14-5.87,30.21Z"/><path class="cls-17" d="M271.62,990.33l1.43-7.23q7.74-39.24,15.52-78.47l-5.75.76-.64-5.9c-1.58-14.52-2.38-21.77-4-36.27l-.65-6,6-.47q38.61-3,77.22-5.93l4.66-.35,1.34,4.48c12.09,40.43,24.26,81.64,36.17,122.49l2,6.84-7.1.57c-16.77,1.34-25.15,2-41.91,3.37l-5,.41-3.72-16.76L327,973.11l-2.75,15-4.64.19c-16.26.65-24.39,1-40.64,1.67ZM303.1,891,301.53,899q-7.84,39.57-15.66,79.16l28.65-1.18,2.71-14.87,4.55-.27L351.4,960l4.94-.29L360,976.29l29.77-2.4C379,936.83,367.93,899.51,357,862.8q-33.27,2.52-66.55,5.11c1,9,1.69,15.41,2.67,24.42Zm19.53,45.16,12.21-62.89,6.37,25.2c3,11.88,4.51,17.83,7.5,29.75l1.75,7Z"/><path class="cls-17" d="M496.82,893.12c-7,6.2-10.47,9.3-17.44,15.47,8.6,4.53,12.89,6.8,21.48,11.36,2.21,15.4,3.31,23.1,5.51,38.53-12.36,9.25-18.53,13.86-30.85,23q-35.46.08-70.94.28-1.41-45-2.83-90L385,893.69c-1.42-14.76-2.12-22.13-3.55-36.87q54.38-5.54,108.75-11C492.87,864.74,494.19,874.19,496.82,893.12ZM457.39,889l.1-8-21.26,2.78c.24,6.84.36,10.27.61,17.11Zm-18,57.5,20.66-1.1c-.38-4.77-.58-7.16-1-11.93-8.57-4.17-12.87-6.25-21.46-10.38C438.33,932.48,438.68,937.16,439.39,946.53Z"/><path class="cls-17" d="M399,987.65l-.18-5.65q-1.3-41.87-2.64-83.73l-16.35,1.85-.56-5.88c-1.42-14.75-2.12-22.13-3.54-36.86l-.56-5.75,5.75-.59q54.38-5.52,108.76-10.95l5.55-.55.77,5.52c2.66,18.88,4,28.33,6.61,47.26l.43,3.07-2.32,2.07-11.17,9.91,14.08,7.46,2.6,1.38.42,2.92c2.21,15.4,3.31,23.1,5.51,38.53l.48,3.4-2.75,2.07c-12.36,9.25-18.53,13.86-30.86,23l-1.53,1.15h-1.92q-35.46.09-70.93.29Zm8.39-102.33.2,6.29q1.33,42.18,2.66,84.37,31.68-.18,63.38-.26C484,968,490,963.46,500.14,955.89c-1.76-12.3-2.83-19.79-4.6-32.19-6.94-3.69-11.19-5.93-18.87-10l-7.43-3.91,6.29-5.57c6.15-5.45,9.59-8.5,15.11-13.41-2.1-15.09-3.37-24.21-5.4-38.64q-48.72,4.86-97.44,9.81c.9,9.34,1.53,15.92,2.42,25.25ZM434,952.64l-2.95-39.12,9.06,4.37c8.6,4.14,12.9,6.22,21.49,10.4l3,1.44,1.72,21.18Zm10.14-19.92.58,7.71,9-.48-.21-2.67C450,935.56,447.18,934.17,444.17,932.72Zm-12.79-21.89-1.14-32.06,33.15-4.33-.24,17.95-2.85,1.66L439.75,906Zm10.84-21.92.07,2.17,4.85-2.81Z"/><path class="cls-17" d="M503.18,890.9c-1.37-15-2.06-22.56-3.44-37.59q31.57-1.95,63.17-3.86,2.18,45.76,4.3,91.53l24.85-.54q-1.29-45.24-2.61-90.48c17-.82,25.44-1.22,42.41-2q.52,54.28,1,108.59l-15.7,21.25q-34,1.23-68.1,2.55c-8.66-6.47-13-9.69-21.68-16.1q-2.76-37.71-5.58-75.41Z"/><path class="cls-17" d="M547.25,986.22,545.61,985c-8.66-6.46-13-9.68-21.66-16.08l-2.14-1.59-.2-2.66q-2.54-34.7-5.13-69.4l-18.55,2.07-.54-5.9c-1.37-15-2.05-22.56-3.43-37.59l-.55-6,6-.37q31.59-2,63.18-3.86l5.87-.36.28,5.87q2,42.95,4,85.88l13.34-.29q-1.2-42.32-2.44-84.63l-.16-5.69,5.68-.27c17-.83,25.45-1.23,42.42-2l6-.28,0,6q.54,54.3,1,108.59v1.95L620.18,983.5l-2.79.1q-34,1.23-68.09,2.54ZM533,961.15c6.8,5,11,8.15,17.91,13.31q31.62-1.22,63.26-2.37l12.89-17.44q-.46-50.31-.95-100.62c-11.42.53-19.2.9-30.69,1.46q1.25,42.39,2.44,84.78l.16,5.85-5.84.12-24.84.54-5.66.13-.26-5.66q-2-42.82-4-85.65-25.67,1.54-51.32,3.14c.87,9.5,1.48,16.21,2.35,25.74l18.74-2.09.45,6Q530.32,924.77,533,961.15Z"/><path class="cls-17" d="M638.05,889.23c-1.16-15.3-1.74-23-2.91-38.23q31.64-1.21,63.26-2.38,1,42.61,2,85.25c13.86-.47,20.79-.7,34.65-1.15.61,15.87.91,23.81,1.5,39.69q-38.59,1-77.19,2.2-1.79-43.58-3.59-87.16Z"/><path class="cls-17" d="M653.81,980.58l-.24-5.74q-1.65-40.5-3.34-81l-17.52,1.76-.45-5.93c-1.16-15.3-1.74-22.95-2.9-38.23l-.46-6,6-.23q31.64-1.22,63.26-2.38l5.88-.22.14,5.88q.94,39.69,1.88,79.39c10.25-.35,17-.57,28.8-1l5.77-.19.21,5.77c.61,15.87.91,23.81,1.5,39.69l.22,5.86-5.86.16q-38.6,1-77.17,2.2Zm7.51-99.52.26,6.15q1.7,40.71,3.36,81.42,32.79-1,65.6-1.86c-.39-10.42-.66-17.63-1.06-28.06l-28.88,1-5.86.2-.13-5.87q-.93-39.68-1.88-79.36-25.66.95-51.34,1.93c.74,9.71,1.26,16.55,2,26.29Z"/><path class="cls-17" d="M726.23,884c-1-15.6-1.49-23.39-2.49-39Q777.37,842,831,839l-.25,39.46c-17.7.58-26.55.88-44.25,1.49l.2,18.84,25.51-.47c.08,9.56.13,14.34.21,23.89l-25.07,1.32.15,14.29c16-.2,24-.3,39.94-.48.72,14.94,1.08,22.42,1.79,37.38q-41.44,0-82.87.22-1.26-46.17-2.57-92.33Z"/><path class="cls-17" d="M740.72,980.8l-.16-5.67q-1.17-43.12-2.39-86.23l-17.36,1.34-.37-5.87c-1-15.6-1.5-23.39-2.5-39l-.37-5.84,5.83-.33c35.61-2,71.71-4.07,107.29-6l6.16-.34-.32,51.22-5.58.18-38.58,1.29.09,7.32,19.65-.35,5.86-.1.31,35.3-25.06,1.32,0,2.9c12.36-.16,20.21-.25,34.14-.4l5.59-.07.27,5.59c.72,14.95,1.08,22.42,1.79,37.38l.29,6.08h-6.08q-41.43.06-82.86.22Zm8.71-104.42.17,6.09q1.23,43.34,2.41,86.67,35.58-.14,71.14-.19c-.45-9.47-.77-16.16-1.23-25.71-12.48.14-20.34.24-34.34.42l-5.81.07-.28-25.67,25.09-1.32-.12-12.48-19.64.36-5.85.11-.33-30.36,5.67-.2c15.74-.54,24.48-.83,38.68-1.3l.18-27.71c-31.63,1.73-63.62,3.52-95.26,5.34.65,10.11,1.1,17.14,1.74,27.25Z"/><path class="cls-17" d="M833.81,881.69c-.88-15.78-1.32-23.67-2.21-39.42q32-1,63.92-1.91,1.2,66.67,2.33,133.34c-18.2-.19-27.3-.27-45.5-.41q-.55-46.45-1.14-92.89Z"/><path class="cls-17" d="M903.76,979.56l-6-.06c-18.2-.18-27.29-.26-45.49-.41l-5.69,0-.07-5.7Q846,930,845.48,886.64l-17.13,1.28L828,882c-.88-15.78-1.32-23.66-2.21-39.42l-.34-6,6-.18q32-1,63.93-1.9l5.86-.17.11,5.87q1.2,66.68,2.33,133.34Zm-45.67-12c12.72.1,21.19.18,33.86.3q-1-60.75-2.13-121.49-26,.75-52.09,1.55c.58,10.21,1,17.33,1.55,27.57l17.65-1.31.08,6.17Q857.57,923.93,858.09,967.53Z"/><path class="cls-17" d="M903.05,880.46c-.88-15.94-1.32-23.91-2.21-39.83q48.2-1.54,96.41-2.92c7.71,11.63,11.56,17.47,19.24,29.18l-2.3,46.1c-5.76,5.08-8.64,7.61-14.4,12.67,6.17,6,9.25,9.05,15.4,15.1-.07,13.32-.1,20-.17,33.32-14.82,0-22.24-.05-37.06-.06.26-10.44.38-15.65.64-26.08-6.55-5.55-9.82-8.32-16.38-13.83.21,15.79.31,23.7.51,39.51-16.7-.24-25.05-.35-41.75-.55q-.24-46.94-.52-93.86Zm75.48,15.94c.4-8.62.59-12.93,1-21.56l-18.37,1.24c.15,8.51.22,12.77.36,21.29Z"/><path class="cls-17" d="M1020.8,979.9l-5.79,0-37-.06H972l.7-29.25-4.53-3.84.42,32.77-6-.08c-16.7-.24-25-.34-41.74-.55l-5.71-.07,0-5.7q-.23-43.83-.48-87.65l-17.11,1.23-.32-5.9c-.89-15.94-1.33-23.91-2.22-39.83l-.33-5.93,5.94-.19c34.59-1.11,66.14-2.07,96.43-2.92l3.22-.09,1.78,2.68c7.72,11.64,11.58,17.48,19.26,29.21l1,1.58-2.51,50.43-1.84,1.62-9.71,8.55c3.61,3.52,6.46,6.32,10.94,10.73l1.75,1.72Zm-36.89-11.68,25.33,0,.13-25.08c-5-5-8.09-7.94-13.64-13.36l-4.48-4.38L996,921.3l12.56-11,2.07-41.76c-6.41-9.77-10.17-15.47-16.4-24.89-27.55.79-56.17,1.65-87.23,2.64.59,10.39,1,17.6,1.56,28L926.23,873l0,6.2q.27,44.07.49,88.15c11.25.14,18.9.24,30.1.4l-.6-46.23,9.71,8.17c6.56,5.52,9.84,8.29,16.39,13.84l2.12,1.79Zm-28.1-64.71-.55-32.85,30.36-2-1.53,33.29Zm11.24-22,.17,9.73,5.75-.33.45-9.83Z"/><path class="cls-17" d="M1041.5,834.38q32-.51,64-1c8.23,5.79,12.34,8.69,20.55,14.51q.83,51,1.6,102.06l-11.91,19q-36.06.78-72.12,1.66c-7.11-5.49-10.67-8.22-17.8-13.67q-2-52.84-4.17-105.67C1029.6,844.52,1033.56,841.15,1041.5,834.38Zm23.33,101,24.55-2q-.33-33.54-.68-67.08c-11.61.67-17.41,1-29,1.7Q1062.28,901.64,1064.83,935.34Z"/><path class="cls-17" d="M1041.73,976.45l-1.63-1.25c-7.11-5.48-10.66-8.22-17.78-13.66l-2.17-1.66-.11-2.73q-2.06-52.83-4.17-105.66l-.11-2.82,2.15-1.83c7.92-6.74,11.89-10.11,19.83-16.88l1.58-1.35,2.09,0q32-.52,64-1l1.88,0,1.54,1.08c8.24,5.79,12.35,8.7,20.57,14.53l2.39,1.7,0,2.94q.83,51,1.61,102.06l0,1.72L1119,974.67l-3.12.07q-36.06.79-72.11,1.66ZM1031.54,954c5.25,4,8.64,6.62,14,10.77q33.48-.82,67-1.55l9.33-14.86q-.73-48.69-1.53-97.39c-6.21-4.4-10.15-7.19-16.59-11.72q-30,.43-60,.92l-16.09,13.7Q1029.59,903.91,1031.54,954Zm27.94-12.38-.44-5.83q-2.55-33.69-5.15-67.38l-.45-5.89,5.9-.35,29-1.7,6.08-.35.06,6.09q.35,33.54.68,67.08l.06,5.41Zm6.44-68.2q2.14,27.83,4.26,55.67l13.34-1.09q-.27-27.78-.56-55.58Z"/><path class="cls-18" d="M176.52,857.47q22.48-1.25,44.89-2.25t45.28-2.17c1.56,15.15,2.35,22.74,3.9,37.91l-23.21.7q2.72,41.48,5.39,83c-18.16.37-27.24.56-45.4,1q-2.42-40.92-4.86-81.84L178,894.92C177.41,879.94,177.12,872.44,176.52,857.47Z"/><path class="cls-18" d="M278.27,889.57c-1.59-14.5-2.39-21.74-4-36.2q38.63-3.09,77.25-6.08,18.35,61,36.26,122.17c-16.78,1.37-25.17,2.06-41.94,3.45l-3.7-16.6c-11.86.71-17.78,1.07-29.63,1.8-1.09,6-1.64,9-2.72,14.94-16.28.69-24.41,1-40.68,1.76q8.5-43.15,17-86.3Zm55.19,30.62c-3-11.89-4.51-17.83-7.52-29.68-2.34,12.08-3.51,18.11-5.85,30.17Z"/><path class="cls-18" d="M487.27,883.4c-7,6.21-10.47,9.31-17.44,15.49,8.61,4.5,12.91,6.76,21.5,11.3,2.23,15.36,3.33,23,5.54,38.45-12.36,9.26-18.53,13.88-30.85,23.07q-35.49.16-71,.43-1.42-44.92-2.89-89.86l-16.75,1.92c-1.43-14.73-2.14-22.09-3.57-36.8q54.4-5.64,108.81-11.15C483.3,855.08,484.63,864.51,487.27,883.4Zm-39.46-4,.1-7.95-21.28,2.82c.25,6.83.38,10.25.63,17.08Zm-18,57.45,20.68-1.14c-.39-4.77-.59-7.15-1-11.91-8.59-4.15-12.88-6.21-21.48-10.32C428.77,922.82,429.13,927.5,429.84,936.85Z"/><path class="cls-18" d="M493.63,881.18c-1.38-15-2.08-22.53-3.47-37.52q31.6-2,63.21-4,2.22,45.69,4.37,91.37l24.86-.59q-1.32-45.16-2.67-90.32c17-.85,25.46-1.27,42.43-2.1q.57,54.21,1.1,108.41l-15.7,21.26q-34.07,1.29-68.14,2.68c-8.67-6.44-13-9.65-21.7-16q-2.79-37.65-5.63-75.28Z"/><path class="cls-18" d="M628.59,879.24c-1.17-15.28-1.76-22.92-2.93-38.17q31.64-1.29,63.29-2.51,1,42.56,2.07,85.11l34.68-1.21c.61,15.84.91,23.77,1.52,39.62q-38.62,1.13-77.24,2.35-1.8-43.5-3.65-87Z"/><path class="cls-18" d="M716.82,873.83c-1-15.57-1.51-23.35-2.52-38.9q53.67-3.18,107.34-6.21c-.09,15.75-.13,23.63-.22,39.4-17.72.61-26.57.93-44.28,1.57.09,7.53.13,11.29.22,18.81l25.51-.51c.1,9.54.14,14.31.24,23.85L778,913.21c.06,5.71.1,8.56.16,14.26,16-.23,24-.35,40-.56.73,14.92,1.09,22.38,1.81,37.32q-41.46.13-82.93.38-1.29-46.08-2.63-92.17Z"/><path class="cls-18" d="M824.48,871.31c-.9-15.76-1.34-23.63-2.24-39.36q32-1.05,64-2,1.24,66.55,2.42,133.13c-18.21-.15-27.32-.22-45.53-.33q-.58-46.37-1.21-92.74Z"/><path class="cls-18" d="M893.76,869.94c-.89-15.91-1.34-23.87-2.24-39.76q48.22-1.65,96.47-3.11c7.72,11.6,11.58,17.42,19.27,29.09-.9,18.41-1.36,27.62-2.26,46l-14.41,12.68c6.18,6,9.27,9,15.43,15l-.15,33.27c-14.83,0-22.25,0-37.08,0,.25-10.41.37-15.62.61-26-6.55-5.52-9.83-8.28-16.39-13.77.22,15.77.32,23.66.53,39.44-16.71-.2-25.07-.29-41.78-.46q-.27-46.86-.58-93.71Zm75.54,15.77c.39-8.62.59-12.92,1-21.53l-18.38,1.27c.15,8.5.22,12.75.37,21.25Z"/><path class="cls-18" d="M1032.27,823.66q32-.58,64.06-1.11c8.24,5.76,12.35,8.65,20.57,14.45q.87,51,1.69,101.9l-11.91,19q-36.09.85-72.17,1.8c-7.12-5.46-10.69-8.19-17.82-13.62q-2.09-52.74-4.25-105.49Zm23.42,100.75,24.56-2q-.36-33.5-.73-67l-29,1.74Q1053.1,890.77,1055.69,924.41Z"/><g class="cls-22"><path class="cls-3" d="M176.52,857.47q22.48-1.25,44.89-2.25t45.28-2.17c1.56,15.15,2.35,22.74,3.9,37.91l-23.21.7q2.72,41.48,5.39,83c-18.16.37-27.24.56-45.4,1q-2.42-40.92-4.86-81.84L178,894.92C177.41,879.94,177.12,872.44,176.52,857.47Z"/><path class="cls-3" d="M278.27,889.57c-1.59-14.5-2.39-21.74-4-36.2q38.63-3.09,77.25-6.08,18.35,61,36.26,122.17c-16.78,1.37-25.17,2.06-41.94,3.45l-3.7-16.6c-11.86.71-17.78,1.07-29.63,1.8-1.09,6-1.64,9-2.72,14.94-16.28.69-24.41,1-40.68,1.76q8.5-43.15,17-86.3Zm55.19,30.62c-3-11.89-4.51-17.83-7.52-29.68-2.34,12.08-3.51,18.11-5.85,30.17Z"/><path class="cls-3" d="M487.27,883.4c-7,6.21-10.47,9.31-17.44,15.49,8.61,4.5,12.91,6.76,21.5,11.3,2.23,15.36,3.33,23,5.54,38.45-12.36,9.26-18.53,13.88-30.85,23.07q-35.49.16-71,.43-1.42-44.92-2.89-89.86l-16.75,1.92c-1.43-14.73-2.14-22.09-3.57-36.8q54.4-5.64,108.81-11.15C483.3,855.08,484.63,864.51,487.27,883.4Zm-39.46-4,.1-7.95-21.28,2.82c.25,6.83.38,10.25.63,17.08Zm-18,57.45,20.68-1.14c-.39-4.77-.59-7.15-1-11.91-8.59-4.15-12.88-6.21-21.48-10.32C428.77,922.82,429.13,927.5,429.84,936.85Z"/><path class="cls-3" d="M493.63,881.18c-1.38-15-2.08-22.53-3.47-37.52q31.6-2,63.21-4,2.22,45.69,4.37,91.37l24.86-.59q-1.32-45.16-2.67-90.32c17-.85,25.46-1.27,42.43-2.1q.57,54.21,1.1,108.41l-15.7,21.26q-34.07,1.29-68.14,2.68c-8.67-6.44-13-9.65-21.7-16q-2.79-37.65-5.63-75.28Z"/><path class="cls-3" d="M628.59,879.24c-1.17-15.28-1.76-22.92-2.93-38.17q31.64-1.29,63.29-2.51,1,42.56,2.07,85.11l34.68-1.21c.61,15.84.91,23.77,1.52,39.62q-38.62,1.13-77.24,2.35-1.8-43.5-3.65-87Z"/><path class="cls-3" d="M716.82,873.83c-1-15.57-1.51-23.35-2.52-38.9q53.67-3.18,107.34-6.21c-.09,15.75-.13,23.63-.22,39.4-17.72.61-26.57.93-44.28,1.57.09,7.53.13,11.29.22,18.81l25.51-.51c.1,9.54.14,14.31.24,23.85L778,913.21c.06,5.71.1,8.56.16,14.26,16-.23,24-.35,40-.56.73,14.92,1.09,22.38,1.81,37.32q-41.46.13-82.93.38-1.29-46.08-2.63-92.17Z"/><path class="cls-3" d="M824.48,871.31c-.9-15.76-1.34-23.63-2.24-39.36q32-1.05,64-2,1.24,66.55,2.42,133.13c-18.21-.15-27.32-.22-45.53-.33q-.58-46.37-1.21-92.74Z"/><path class="cls-3" d="M893.76,869.94c-.89-15.91-1.34-23.87-2.24-39.76q48.22-1.65,96.47-3.11c7.72,11.6,11.58,17.42,19.27,29.09-.9,18.41-1.36,27.62-2.26,46l-14.41,12.68c6.18,6,9.27,9,15.43,15l-.15,33.27c-14.83,0-22.25,0-37.08,0,.25-10.41.37-15.62.61-26-6.55-5.52-9.83-8.28-16.39-13.77.22,15.77.32,23.66.53,39.44-16.71-.2-25.07-.29-41.78-.46q-.27-46.86-.58-93.71Zm75.54,15.77c.39-8.62.59-12.92,1-21.53l-18.38,1.27c.15,8.5.22,12.75.37,21.25Z"/><path class="cls-3" d="M1032.27,823.66q32-.58,64.06-1.11c8.24,5.76,12.35,8.65,20.57,14.45q.87,51,1.69,101.9l-11.91,19q-36.09.85-72.17,1.8c-7.12-5.46-10.69-8.19-17.82-13.62q-2.09-52.74-4.25-105.49Zm23.42,100.75,24.56-2q-.36-33.5-.73-67l-29,1.74Q1053.1,890.77,1055.69,924.41Z"/></g><g class="cls-23"><path class="cls-8" d="M176.52,857.47q22.48-1.25,44.89-2.25t45.28-2.17c1.56,15.15,2.35,22.74,3.9,37.91l-23.21.7q2.72,41.48,5.39,83c-18.16.37-27.24.56-45.4,1q-2.42-40.92-4.86-81.84L178,894.92C177.41,879.94,177.12,872.44,176.52,857.47Z"/><path class="cls-8" d="M278.27,889.57c-1.59-14.5-2.39-21.74-4-36.2q38.63-3.09,77.25-6.08,18.35,61,36.26,122.17c-16.78,1.37-25.17,2.06-41.94,3.45l-3.7-16.6c-11.86.71-17.78,1.07-29.63,1.8-1.09,6-1.64,9-2.72,14.94-16.28.69-24.41,1-40.68,1.76q8.5-43.15,17-86.3Zm55.19,30.62c-3-11.89-4.51-17.83-7.52-29.68-2.34,12.08-3.51,18.11-5.85,30.17Z"/><path class="cls-8" d="M487.27,883.4c-7,6.21-10.47,9.31-17.44,15.49,8.61,4.5,12.91,6.76,21.5,11.3,2.23,15.36,3.33,23,5.54,38.45-12.36,9.26-18.53,13.88-30.85,23.07q-35.49.16-71,.43-1.42-44.92-2.89-89.86l-16.75,1.92c-1.43-14.73-2.14-22.09-3.57-36.8q54.4-5.64,108.81-11.15C483.3,855.08,484.63,864.51,487.27,883.4Zm-39.46-4,.1-7.95-21.28,2.82c.25,6.83.38,10.25.63,17.08Zm-18,57.45,20.68-1.14c-.39-4.77-.59-7.15-1-11.91-8.59-4.15-12.88-6.21-21.48-10.32C428.77,922.82,429.13,927.5,429.84,936.85Z"/><path class="cls-8" d="M493.63,881.18c-1.38-15-2.08-22.53-3.47-37.52q31.6-2,63.21-4,2.22,45.69,4.37,91.37l24.86-.59q-1.32-45.16-2.67-90.32c17-.85,25.46-1.27,42.43-2.1q.57,54.21,1.1,108.41l-15.7,21.26q-34.07,1.29-68.14,2.68c-8.67-6.44-13-9.65-21.7-16q-2.79-37.65-5.63-75.28Z"/><path class="cls-8" d="M628.59,879.24c-1.17-15.28-1.76-22.92-2.93-38.17q31.64-1.29,63.29-2.51,1,42.56,2.07,85.11l34.68-1.21c.61,15.84.91,23.77,1.52,39.62q-38.62,1.13-77.24,2.35-1.8-43.5-3.65-87Z"/><path class="cls-8" d="M716.82,873.83c-1-15.57-1.51-23.35-2.52-38.9q53.67-3.18,107.34-6.21c-.09,15.75-.13,23.63-.22,39.4-17.72.61-26.57.93-44.28,1.57.09,7.53.13,11.29.22,18.81l25.51-.51c.1,9.54.14,14.31.24,23.85L778,913.21c.06,5.71.1,8.56.16,14.26,16-.23,24-.35,40-.56.73,14.92,1.09,22.38,1.81,37.32q-41.46.13-82.93.38-1.29-46.08-2.63-92.17Z"/><path class="cls-8" d="M824.48,871.31c-.9-15.76-1.34-23.63-2.24-39.36q32-1.05,64-2,1.24,66.55,2.42,133.13c-18.21-.15-27.32-.22-45.53-.33q-.58-46.37-1.21-92.74Z"/><path class="cls-8" d="M893.76,869.94c-.89-15.91-1.34-23.87-2.24-39.76q48.22-1.65,96.47-3.11c7.72,11.6,11.58,17.42,19.27,29.09-.9,18.41-1.36,27.62-2.26,46l-14.41,12.68c6.18,6,9.27,9,15.43,15l-.15,33.27c-14.83,0-22.25,0-37.08,0,.25-10.41.37-15.62.61-26-6.55-5.52-9.83-8.28-16.39-13.77.22,15.77.32,23.66.53,39.44-16.71-.2-25.07-.29-41.78-.46q-.27-46.86-.58-93.71Zm75.54,15.77c.39-8.62.59-12.92,1-21.53l-18.38,1.27c.15,8.5.22,12.75.37,21.25Z"/><path class="cls-8" d="M1032.27,823.66q32-.58,64.06-1.11c8.24,5.76,12.35,8.65,20.57,14.45q.87,51,1.69,101.9l-11.91,19q-36.09.85-72.17,1.8c-7.12-5.46-10.69-8.19-17.82-13.62q-2.09-52.74-4.25-105.49Zm23.42,100.75,24.56-2q-.36-33.5-.73-67l-29,1.74Q1053.1,890.77,1055.69,924.41Z"/></g><path class="cls-21" d="M207.37,979.46a3.87,3.87,0,0,1-3.86-3.64q-2.31-39-4.63-78l-20.69,1a4,4,0,0,1-2.8-1,3.87,3.87,0,0,1-1.25-2.7l-1.49-37.46a3.87,3.87,0,0,1,3.66-4c14.66-.81,29.78-1.56,44.92-2.24q22.4-1,45.26-2.17a3.85,3.85,0,0,1,4.05,3.46c1.56,15.16,2.34,22.74,3.9,37.92a3.87,3.87,0,0,1-3.73,4.26l-19.21.57q2.58,39.48,5.14,79a3.9,3.9,0,0,1-1,2.87,3.84,3.84,0,0,1-2.77,1.25c-18.16.37-27.24.56-45.39,1Zm-4.86-89.58a3.88,3.88,0,0,1,3.87,3.64q2.33,39,4.63,78.11c14.46-.32,23.26-.5,37.64-.8q-2.55-39.47-5.13-78.92a3.88,3.88,0,0,1,3.74-4.12l19.06-.57c-1.17-11.39-1.92-18.63-3.1-30.12q-21,1.06-41.64,2c-13.81.62-27.6,1.31-41,2l1.18,29.75,20.61-1Z"/><path class="cls-21" d="M269.12,978.68a3.88,3.88,0,0,1-3.8-4.62q8-40.5,16-81l-2.53.34a3.91,3.91,0,0,1-2.9-.79,3.85,3.85,0,0,1-1.46-2.62c-1.59-14.49-2.39-21.73-4-36.2a3.86,3.86,0,0,1,3.54-4.28q38.63-3.09,77.25-6.08a3.88,3.88,0,0,1,4,2.74c12.11,40.32,24.32,81.43,36.27,122.2a3.88,3.88,0,0,1-3.4,5c-16.78,1.37-25.17,2.06-41.94,3.45a3.87,3.87,0,0,1-4.09-3l-3-13.38-23.31,1.42-2.18,12a3.85,3.85,0,0,1-3.64,3.17c-16.27.69-24.4,1-40.67,1.75Zm17-94a3.88,3.88,0,0,1,3.8,4.63Q281.9,930,273.87,970.73c12.21-.54,20-.87,32.67-1.41l2.17-11.9a3.87,3.87,0,0,1,3.57-3.17l29.64-1.81a3.85,3.85,0,0,1,4,3l3,13.32L382.74,966c-11.22-38.25-22.65-76.76-34-114.6q-35.07,2.72-70.15,5.52c1.18,10.7,1.94,17.57,3.12,28.3l4-.53A2.92,2.92,0,0,1,286.16,884.64Zm33.93,39.91a3.87,3.87,0,0,1-3.8-4.61l5.85-30.17a3.88,3.88,0,0,1,3.69-3.13,3.83,3.83,0,0,1,3.86,2.92c3,11.85,4.52,17.79,7.52,29.68a3.87,3.87,0,0,1-3.61,4.81l-13.36.5Zm6.36-16.31-1.63,8.39,3.71-.13Z"/><path class="cls-21" d="M395,976a3.86,3.86,0,0,1-3.86-3.74l-2.76-85.67-12.58,1.45a3.85,3.85,0,0,1-2.88-.84,3.93,3.93,0,0,1-1.42-2.63c-1.42-14.74-2.13-22.09-3.56-36.8a3.87,3.87,0,0,1,3.45-4.23q54.4-5.62,108.82-11.16a3.89,3.89,0,0,1,4.22,3.31c2.67,18.84,4,28.28,6.64,47.16a3.83,3.83,0,0,1-1.26,3.43c-5.43,4.84-8.75,7.79-13.24,11.77,5.65,3,9.76,5.12,16.54,8.7a3.89,3.89,0,0,1,2,2.87c2.22,15.37,3.32,23.06,5.53,38.46a3.86,3.86,0,0,1-1.51,3.64c-12.36,9.27-18.53,13.89-30.85,23.08a3.83,3.83,0,0,1-2.3.77q-35.49.17-71,.43Zm-2.89-97.6a3.87,3.87,0,0,1,3.87,3.74q1.39,43.05,2.77,86.1,33-.25,66-.4c11-8.24,17.15-12.81,28-20.93-1.9-13.29-3-20.88-4.92-34.23-7.48-3.94-11.75-6.19-19.76-10.37a3.86,3.86,0,0,1-.77-6.32l15.89-14.11c-2.28-16.32-3.59-25.6-5.83-41.42Q426.68,845.62,376,850.85c1.08,11,1.76,18,2.82,29.06l12.84-1.47A3.25,3.25,0,0,1,392.14,878.41Zm37.7,62.31a3.88,3.88,0,0,1-3.86-3.58l-1.78-23.37a3.86,3.86,0,0,1,5.53-3.78c8.6,4.11,12.9,6.18,21.49,10.33a3.86,3.86,0,0,1,2.18,3.17l1,11.9a3.87,3.87,0,0,1-3.64,4.18l-20.67,1.14Zm2.59-20.86,1,12.92,12.92-.72-.47-5.73C440.64,923.8,437,922,432.43,919.86Zm-5.17-24.64a3.87,3.87,0,0,1-3.87-3.73l-.62-17.08a3.86,3.86,0,0,1,3.35-4l21.28-2.82a3.92,3.92,0,0,1,3.08.94,3.86,3.86,0,0,1,1.3,3l-.1,8a3.88,3.88,0,0,1-1.92,3.3l-20.56,12A3.84,3.84,0,0,1,427.26,895.22Zm3.37-17.58.26,7.13L444,877.16l0-1.29Zm17.18,1.76h0Z"/><path class="cls-21" d="M539.62,974.25a3.83,3.83,0,0,1-2.3-.77c-8.67-6.43-13-9.63-21.69-16a3.89,3.89,0,0,1-1.57-2.83q-2.64-35.64-5.33-71.27L494.07,885a3.79,3.79,0,0,1-2.88-.84,3.84,3.84,0,0,1-1.41-2.65c-1.39-15-2.08-22.52-3.47-37.52a3.86,3.86,0,0,1,.91-2.87,3.9,3.9,0,0,1,2.7-1.35q31.6-2,63.21-4a3.87,3.87,0,0,1,4.11,3.67q2.12,43.8,4.19,87.6l17.19-.41q-1.26-43.2-2.55-86.42a3.86,3.86,0,0,1,3.67-4c17-.86,25.46-1.28,42.44-2.11a4,4,0,0,1,2.84,1.05,3.89,3.89,0,0,1,1.21,2.78q.57,54.21,1.1,108.42a3.82,3.82,0,0,1-.75,2.33L610.88,970a3.88,3.88,0,0,1-3,1.57q-34.06,1.29-68.13,2.67Zm-18-22c7.41,5.45,11.69,8.61,19.18,14.17q32.46-1.31,64.93-2.55l13.82-18.71q-.51-51.56-1-103.1c-13.2.64-21.38,1-34.62,1.72q1.29,43.26,2.55,86.53a3.86,3.86,0,0,1-3.78,4l-24.85.59h-.1a3.87,3.87,0,0,1-3.86-3.68q-2.07-43.74-4.18-87.45-27.66,1.72-55.31,3.49c1,11.22,1.7,18.37,2.73,29.62l14.73-1.67a3.86,3.86,0,0,1,4.29,3.56Q518.92,915.53,521.65,952.28Z"/><path class="cls-21" d="M650,968.3a3.87,3.87,0,0,1-3.86-3.71q-1.73-41.45-3.49-82.9L629,883.09a3.86,3.86,0,0,1-4.25-3.56c-1.17-15.27-1.76-22.91-2.93-38.16a3.93,3.93,0,0,1,1-2.88,3.89,3.89,0,0,1,2.74-1.29q31.65-1.28,63.3-2.5a3.84,3.84,0,0,1,4,3.77q1,40.59,2,81.19l30.76-1.07a3.79,3.79,0,0,1,4,3.72c.62,15.84.92,23.77,1.53,39.63a3.86,3.86,0,0,1-3.76,4q-38.61,1.13-77.22,2.35Zm-3.65-94.75a3.84,3.84,0,0,1,2.53,1,3.8,3.8,0,0,1,1.33,2.76q1.77,41.58,3.5,83.18,34.75-1.1,69.51-2.11c-.46-12.14-.75-19.74-1.22-31.87-11.43.39-18.3.63-30.82,1.08a3.77,3.77,0,0,1-2.79-1,3.87,3.87,0,0,1-1.22-2.73q-1-40.59-2-81.18-27.67,1.08-55.35,2.19c.89,11.45,1.45,18.74,2.32,30.21l13.79-1.41Z"/><path class="cls-21" d="M737,968.49a3.86,3.86,0,0,1-3.86-3.77q-1.24-44-2.52-88.1l-13.52,1.07a3.89,3.89,0,0,1-4.17-3.61c-1-15.57-1.51-23.35-2.52-38.9a3.87,3.87,0,0,1,3.63-4.11c35.19-2.09,71.31-4.18,107.35-6.22a3.87,3.87,0,0,1,4.09,3.89l-.22,39.4a3.87,3.87,0,0,1-3.74,3.85c-16.41.57-25.21.88-40.5,1.43l.13,11.13,21.62-.43a3.86,3.86,0,0,1,3.94,3.83l.24,23.86a3.87,3.87,0,0,1-3.66,3.9l-21.39,1.16.07,6.68,36.1-.51h0a3.87,3.87,0,0,1,3.86,3.68c.73,14.92,1.1,22.39,1.82,37.32A3.88,3.88,0,0,1,820,968.1q-41.46.14-82.92.39Zm-2.63-99.93a3.9,3.9,0,0,1,3.87,3.76q1.28,44.2,2.53,88.4,37.55-.22,75.1-.35c-.54-11.18-.88-18.29-1.44-29.54-13.6.18-21.53.29-36.22.51a3.75,3.75,0,0,1-2.76-1.09,3.87,3.87,0,0,1-1.17-2.73l-.16-14.26a3.86,3.86,0,0,1,3.66-3.91l21.39-1.17L799,891.94l-21.6.43a4,4,0,0,1-2.78-1.09,3.84,3.84,0,0,1-1.17-2.73l-.22-18.81a3.88,3.88,0,0,1,3.73-3.92c16.43-.59,25.24-.91,40.57-1.44l.18-31.57c-33.35,1.89-66.72,3.82-99.33,5.75.77,11.83,1.25,19.27,2,31.1l13.67-1.08Z"/><path class="cls-21" d="M888.62,966.92h0c-18.21-.15-27.32-.22-45.52-.32a3.88,3.88,0,0,1-3.85-3.83q-.56-44.31-1.16-88.62l-13.29,1a3.87,3.87,0,0,1-4.16-3.64c-.89-15.75-1.34-23.62-2.24-39.35a3.88,3.88,0,0,1,3.74-4.09q32-1.05,64-2a3.89,3.89,0,0,1,4,3.8q1.24,66.55,2.42,133.13a3.84,3.84,0,0,1-1.12,2.79A3.9,3.9,0,0,1,888.62,966.92Zm-41.71-8c14.49.08,23.32.15,37.77.26q-1.11-62.61-2.28-125.23-28,.87-56.07,1.78c.68,11.95,1.11,19.48,1.79,31.46l13.47-1a3.79,3.79,0,0,1,2.9,1,3.84,3.84,0,0,1,1.26,2.8Q846.35,914.41,846.91,958.88Z"/><path class="cls-21" d="M968.79,967.08a3.88,3.88,0,0,1-3.87-4l.57-24.18c-3.3-2.79-5.79-4.88-8.5-7.16l.42,31a3.86,3.86,0,0,1-3.87,3.92h0c-16.71-.2-25.07-.29-41.78-.46a3.87,3.87,0,0,1-3.83-3.85q-.25-44.77-.56-89.57l-13.28,1a3.87,3.87,0,0,1-4.15-3.64c-.9-15.92-1.35-23.87-2.25-39.76a3.88,3.88,0,0,1,1-2.83,3.83,3.83,0,0,1,2.72-1.26c34.42-1.17,66-2.19,96.49-3.11a3.74,3.74,0,0,1,3.34,1.72c7.73,11.61,11.58,17.43,19.28,29.11a3.9,3.9,0,0,1,.64,2.32l-2.27,46a3.87,3.87,0,0,1-1.3,2.71L996.29,915c4.36,4.24,7.35,7.16,12.44,12.14a3.9,3.9,0,0,1,1.16,2.78l-.15,33.09a4,4,0,0,1-3.87,4h0c-14.84,0-22.25,0-37.08,0ZM953,919.52a3.85,3.85,0,0,1,2.49.9c6.56,5.5,9.84,8.26,16.4,13.79a3.82,3.82,0,0,1,1.37,3l-.52,22.08c11.09,0,18.15,0,29.27,0l.12-27.77c-5.41-5.29-8.47-8.29-14.24-13.89A3.87,3.87,0,0,1,988,912l13.17-11.61,2.12-43.13C996.49,846.86,992.68,841.1,986,831c-28.66.87-58.28,1.82-90.36,2.91.69,12.12,1.12,19.74,1.8,31.88l13.5-1a3.88,3.88,0,0,1,4.15,3.83q.3,45,.56,89.91c13,.13,21,.22,34,.38l-.48-35.48a3.86,3.86,0,0,1,3.87-3.92Zm-.74-28.95a3.87,3.87,0,0,1-3.87-3.8L948,865.52a3.87,3.87,0,0,1,3.6-3.93L970,860.32a3.86,3.86,0,0,1,4.13,4l-1,21.53a3.88,3.88,0,0,1-3.64,3.69l-17,1Zm17-4.86h0Zm-13.47-16.65.24,13.54,9.52-.56.62-13.7Z"/><path class="cls-21" d="M1034.51,963.53a3.89,3.89,0,0,1-2.36-.8c-7.11-5.46-10.67-8.18-17.8-13.61a3.87,3.87,0,0,1-1.53-2.92q-2.09-52.76-4.25-105.49a3.89,3.89,0,0,1,1.36-3.11l19.83-16.89a3.82,3.82,0,0,1,2.44-.92q32-.59,64.07-1.11a3.87,3.87,0,0,1,2.28.7c8.24,5.76,12.36,8.65,20.59,14.46a3.88,3.88,0,0,1,1.63,3.09q.87,51,1.69,101.91a3.89,3.89,0,0,1-.6,2.12l-11.91,19a3.85,3.85,0,0,1-3.18,1.81q-36.07.85-72.16,1.8Zm-14-19.46c5.85,4.46,9.34,7.13,15.29,11.69q34.37-.9,68.73-1.72l10.19-16.23q-.79-49.38-1.63-98.78c-6.86-4.84-10.9-7.67-17.93-12.59q-30.71.51-61.41,1.06c-6.78,5.78-10.68,9.11-17.35,14.78Q1018.46,893.18,1020.49,944.07Zm35.2-15.79a3.86,3.86,0,0,1-3.86-3.57q-2.58-33.65-5.2-67.28a3.87,3.87,0,0,1,3.62-4.16l29-1.75a3.86,3.86,0,0,1,4.1,3.82q.38,33.49.73,67a3.86,3.86,0,0,1-3.55,3.89L1056,928.27Zm-1-67.52q2.31,29.73,4.6,59.47l17.09-1.43q-.31-29.65-.65-59.31Z"/></g><path class="cls-17" d="M148.48,924.59a4.73,4.73,0,1,1-4.57-4.89A4.74,4.74,0,0,1,148.48,924.59Z"/><path class="cls-17" d="M175.9,966.69a4.73,4.73,0,1,1-4.57-4.89A4.72,4.72,0,0,1,175.9,966.69Z"/><path class="cls-17" d="M1088.94,761.76a30.41,30.41,0,0,0,12.82-25.09,30.37,30.37,0,0,0,21.14,18.62,61.93,61.93,0,0,0,6.33.82,63.06,63.06,0,0,0-5.59,3.1,30.41,30.41,0,0,0-12.82,25.09,30.38,30.38,0,0,0-21.14-18.63c-1.85-.44-6.33-.82-6.33-.82S1087.38,762.85,1088.94,761.76Z"/><path class="cls-17" d="M1129.11,700.85a18.78,18.78,0,0,0,7.94-15.53,18.82,18.82,0,0,0,13.09,11.53,38,38,0,0,0,3.92.51,38.56,38.56,0,0,0-3.46,1.92,18.79,18.79,0,0,0-7.94,15.53,18.8,18.8,0,0,0-13.08-11.53,38.31,38.31,0,0,0-3.92-.51A38.82,38.82,0,0,0,1129.11,700.85Z"/></g></g></g></svg>